<svg xmlns="http://www.w3.org/2000/svg" xml:space="preserve" viewBox="0 0 640 640"><path d="M357 641H1V1h640v640H357m113-306 1-1 3-3 3-5h1l1-1h1l2-4h1v-1h1l5 1 6 4c3 3 6 2 7-2l2-13h58c-2-21-6-41-13-61 0-1-2-3-4-3l-32-1 2-13c0-5-1-6-6-5l-25 9-31 10-30-1-1-8c0-5-2-11-1-16 3-24 8-47 9-71l17 19c4 5 9 7 16 7h48A256 256 0 0 0 298 73c-83 2-149 38-201 103h7l116 1c-2 9-3 17-8 25-9 13-13 28-11 44H65c-4 0-5 1-6 4l-6 21-7 39 163 1 5 12c1 1 0 3-1 4-7 13-12 26-11 41l-2 4c-8 1-15 7-23 6l-10 2H50c4 21 10 40 19 59 1 4 3 6 8 6h83c-3 9-2 17 3 25l2 1v2l1 3c-6 0-11 2-14 6l-11 12c-6 9-14 15-26 15l28 27-5 10 32 30 5 1 7-6 9-6c110 53 234 20 302-56h-5l-155-1a3893 3893 0 0 1-84-1h1l3-3 1-1 1-1 1-1 5-5 4-4 4-4 7-6 17-15h4l1 1 2 2 2 2 3 2 6 5 6 4 2 2a404 404 0 0 0 8 3h1c2-1 5-1 7-3l15-16 4-4 6-7 3-3 4-4 2-3 1-1 1-1 1-1 2-1h159c3 0 5 0 6-4l11-27 9-33h-10l-118-1h1c0-2 1-3 3-4l5-5 4-5 6-7a90 90 0 0 1 6-7l6-6 2-4 2-1a54 54 0 0 1 4-5z"/><path fill="#05FA6A" d="m174 577-4-1-32-31 18-18 1-1 1-1 1-1 2-2 1-1 1-1 1-1 1-1 2-2 1-1 2-2 1-2h1l1-1 1-1 1-2h1l4-5h1l3-4 1-1 1-1 1-1 1-1 1-1 1-1 1-1 1-1 15 3c7 2 15 2 21-3h1l2-1 3-2 1-1 2-1 3-3h1l1-1 1-1 1-1 1-1 1-1 1-1 1-1 1-1 1-1 2-2 2-3h1l4-5 1-1 3-3 2-2 1-1 1-1 1-1 1-1 1-1 1-1 1-1 4-2 22-10 6-3 4 4h1c12 8 28 8 38 0l1-1h1l1-1 3-3h1l2-3 1-1 2-4h1v-2h1c4-8 5-17 1-25v-1l-3-6-1-1-1-1v-1l-3-3-2-1-1-2v-1l6-20 1-2 1-1 2-1 26-8 3-1 4-3h1l5-4 2-1 1-1 1-1 1-1 4-5 1-2 1-1 1-2c5-9 7-19 6-29v-6h1v-1h1l1-1v-1l1-1 1-1 1-1 1-1 1-1 2-2 1-2 3-3 1-1c4-5-1-5-3-7v-1l-2-1-1-1-2-1v-1h-1v-1l4-3 62-21 6-3h1l12-3-13 84-4-2-1-1c-3-2-4-7-8-2l-1 2h-1v1l-1 1h-1l-2 3-1 1-1 1-1 1-3 3-1 2h-1l-4 5-1 1-1 2h-1v1h-1v1l-1 1-1 1-1 1h-1l-2 3-1 1-1 1-1 1-1 1-1 2h-1l-4 5-1 1-1 1-1 1-2 2-1 2-1 1h-1l-2 3-1 1-1 1-1 1-2 3h-1l-4 5-1 1-1 1-1 1-1 1-1 2h-1v1h-1l-4 5-1 1-1 1-1 1-1 2h-1l-1 2h-1v1h-1l-2 3-1 1-1 1-1 2h-1v1h-1l-1 1-1 2-1 1-2 2-1 1-1 1-1 1-1 1-1 1-1 2-1 1h-1l-2 3-1 1-2 2-3 4h-1l-2 3-1 1-1 1-2 2-1 1-1 2-1 1h-1l-2 3-1 1-1 1-1 1-1 2h-1v1h-1l-1 2h-1l-1 2-1 1-2 2-1 2h-1l-1 2-1 1h-1l-2 3-1 1-2 2-1 2-1 1-1 1-1 1-2 2-1 1-1 1-1 1c-4 5-8 5-12 2l-2-1v-1l-2-1-1-1-2-1v-1l-2-1-1-1-1-1-3-2-1-1-3-2-1-1-2-1v-1c-6-4-9-4-14 0l-1 1-1 1-1 1-1 1-1 1-1 1-2 2-1 1-1 1-1 1-1 1-1 1-2 2-1 1-3 3-4 4-1 1-1 1-1 1h-1l-7 8-1 1-1 1-1 1-1 1h-1l-1 2-1 1h-1v1l-1 1-1 1-1 1-1 1-1 1-1 1h-1v1h-1v1h-1v1h-1v1l-1 1-1 1h-1l-1 2h-1v1h-1v1l-1 1-1 1-2 1-1 2h-1v1h-1v1h-1l-2 3-2 1-2 2-2 2-2 2a42 42 0 0 0-4 5h-1v1h-1v1h-1v1h-1v1h-1v1h-1v1h-1v1h-1l-1 2h-1v1h-1v1h-1l-5 6-1 1-1 1-1 1-2 2-1 1-1 1-1 1-1 1-7 9z"/><path fill="#FDFDFD" d="M220 176H97c52-65 118-101 201-103 87-2 158 34 213 103h-48c-7 0-12-2-16-7l-17-20c-2-10-2-20-5-29-2-10-11-15-22-12-7 1-13 4-19 8l-31 24c-12-7-27-11-42-10-3-7-5-15-9-21-4-7-9-14-14-19-7-7-14-7-22-1a152 152 0 0 0-35 55l-11 32z"/><path fill="#FAFCFC" d="M249 508h84l155 1h5a257 257 0 0 1-302 55l2-3 1-1h1l38-37 1-1 3-3 4-4 1-1 1-1 1-1 1-1 1-1 1-1 2-1m74 10-1 1h-1c0-5-3-5-7-5h-5c-7 0-7 0-8 7-3-7-9-8-18-5v21h6v-5c10-1 12-3 14-11h5v16h7v-7l2-9h3l2 11 1 1 1 2 2 1c5 2 10 2 15-2l2-2 2 5h9l5-2h1v-2h1l-2-4v-1l-1-2-5-5h9v-7l-17 3-4 1v-1l-2-1-2-1-10 1-2 1-2 1m106-2-2-1h-30v7c-8 3-6-3-7-7h-16c-2 0-5 1-6 3l2 6 5 7h-9l1 6 2 1h1l1-1 8 1 1-1 2-1 2 1 7-1 1-7 4 1 1 6 6 1h1l1 1h1l1-1 1 1 4-1 1 1 3-1 2 1h1l1-1 1 1 3-1 1 1 2-1 2-1 1-1c2 3 5 3 8 1l1-1h8l1 1 8 2-3-5v-1l-2-5v-1l-2-4v-1l-2-4v-1c-5-3-8-2-9 3h-1v2h-1l-1 5-1 1-2 4v-1l-2-12-1-2m-162 19 15 2-8-21c-1-2-8-2-9 1l-8 19 1 2 9-3z"/><path fill="#191D61" d="m220 177 11-33a152 152 0 0 1 35-55c8-6 15-6 22 1 5 5 10 12 14 19 4 6 6 14 9 21 15-1 30 3 42 10l31-24c6-4 12-7 19-8 11-3 20 2 22 12 3 9 3 19 4 29 0 25-5 48-8 72-1 5 1 11 1 16l1 9v12l31-12 30-10 25-9c5-1 6 0 6 5l-2 14-1 5-9 59-1 13c-1 4-4 5-7 2l-6-4-6-1-1-4v-1l1-2 8 2 1 1 5 5 2-8 3-25 8-52c1-1-2-4-2-3l-12 4-17 5-54 18c-2 1-4 2-1 5l1 1 2 1 1 1 2 2 3 7-1 1-3 4-1 1-2 2-1 1-1 1-1 1-1 1-1 1v1l-2 1-1 1-2 5c0 10 0 19-4 28v2l-1 2-1 1-1 2-4 5-1 1-1 1-1 1-2 1-6 4-4 3-3 1-18 5-8 3h-1l-1 1-1 1-1 2a542 542 0 0 0-6 22l1 1 2 1 3 4 1 1 1 1 3 7v18l-2 7-1 2-2 4-1 1-3 3-3 3-2 1-1 1-4 1c-7 4-15 5-23 3l-11-4-1-1c-2-6-5-4-9-3h-5l17-11c-8-7-10-14-9-23 2-9 6-15 13-19l15-5 17 2 5-20-6-2 7-3c15-2 30-5 42-14 15-11 21-29 15-49v-3h-2l-6 6-2 1-1 1c-12 7-24 11-37 13-10 1-19 2-29 7h-4c1 0 1 0 0 0h-1l5-4-33-5-42-10-32-18-4 1c-8 10-10 21-6 33l3 6 19-14 3 1h-1l-2 2-7 8h-1l-1 1-2 2-1 2h-1v1l-1 1-2 1c-8 12-14 24-15 39v4c1 10 5 19 12 26 1 1 4 2 5 1 14-5 28-6 42 0h-5c-15-2-28 1-39 8 1 7 4 14 4 21 0 12-7 19-17 25-11 3-21 2-31-3-5-3-10-2-13 4-3 8 0 14 5 20 10 11 23 16 38 19h10c13-2 22-11 30-21l17-17v1l-1 5 1 1-2 2-3 3-1 1-5 5-2 3-2 2-1 1-1 1-1 1-1 1-1 1-1 1-1 1-1 1-2 1-3 3-2 1-1 1-3 2-3 1c-8 1-15 4-22 2l-11-3-3 1-1 1-1 1-1 1-1 1-1 1-1 1-1 1-1 1-4 4-5 5-1 2-1 1-2 1-1 2-2 2-1 1-2 2-1 1-1 1-1 1-1 1-2 2-1 1-1 1-1 1-8 4 32-36 4-4 5-4-14-6-2-1v-1l-2-1-6-6v-1l-2-2c-5-7-6-15-3-24l8-7-9-11c-10-16-9-37 9-47l9-2c8 1 15-5 23-6l2-4c-1-15 4-28 11-41 1-1 2-3 1-4l-5-13c-2-14 1-26 11-36-9-8-14-17-18-28-3-16 1-31 10-44 5-8 6-16 8-25m94 212-1 1c-5 6-7 12-5 20l4 8c7 5 10 5 16 0l10-7c3-2 6-2 6 3l-6 1-6 6c-3 2-7 5-11 6-5 0-8 2-12 5 9 9 23 10 36 3v-1h1l11-13c3-9 3-17-2-26l-1-1v-1h-1v-1h-1v-1l-6-5-4-1v-1c-7-2-13-2-20 1h-1l-1 1h-1l-1 1h-1l-1 1h-1v1h-1m46-246h-1v1h-1l-1 1-1 1-8-3-2-1-17-6-7-1h-1l-14-2a133 133 0 0 1-4-11l-5-11-4-7-2-3-1-1-1-2-1-1-1-2-2-2-7-2c-3 0-6 0-8 2l-14 13c-14 20-22 42-30 65v4h-1l-3 13v1l-2 8-2 3-1 1v1l-2 2-1 2-1 2-1 2-2 6c-4 9-6 20-3 31 5 15 17 26 31 34 36 20 75 27 116 24 17-2 33-7 46-18 7-6 13-13 15-22v-30c0-4-2-9-1-14l6-42c3-15 4-31 2-47-1-6-2-13-8-18l-13-1-2 1-1 1h-1l-2 1h-1l-2 1a2814 2814 0 0 1-23 17h-1v1h-1v1h-1l-1 1-2 1-1 1-1 1-1 1-1 1v1M206 386h1l-1-1-3-8-9 3 12 6m5 12c-8-8-17-13-28-14-16-2-27 9-25 25 1 11 7 20 17 28l16 7c16 3 29-6 30-21 0-9-3-17-10-25m215-125-5-5-5 9c-3 4-2 8 0 12l11-13-1-3z"/><path fill="#FDFDFD" d="M201 246c5 11 10 20 19 28a40 40 0 0 0-11 36H46l7-39 6-21c1-3 2-4 6-4h136z"/><path fill="#FEFEFE" d="M431 380h128l-9 33-11 27c-1 4-3 4-6 4H374l1-3 1-2h1v-1h1v-1h1v-1h1v-1l1-1 1-1 1-1 2-1v-2h1v-1h1v-1h1l2-3 1-1 1-1 2-1v-1l1-1v-1h1l3-3v-1l1-1 1-1 2-1v-2h1v-1h1v-1h1v-1h1l1-1v-1l3-3 1-2h1v-1h1v-1h1v-1l1-1 1-1 1-1 1-1 1-1 1-2h1v-1h1v-1h1v-1l1-1 1-1 1-1 2-2 2-1z"/><path fill="#FDFDFE" d="M168 380c-18 10-19 31-9 47l9 11-8 6-83 1c-5 0-7-2-8-6-9-19-15-38-19-59h118z"/><path fill="#FCFCFC" d="m504 310 8-59 1-4 32-1c2 0 4 2 4 3 7 20 11 40 13 61h-58z"/><path fill="#191C69" d="m383 432-1 1-1 1-1 1-1 1-1 1-1 1v1h-1l-1 2a43 43 0 0 0-5 5l-1 1v1l-3 3-4 4-3 3-6 7-4 4-14 16c-2 2-5 2-8 3h-1l-3-1-4-3-2-1-6-5-6-5-3-2-2-2-2-2h-6l-16 15-8 6-4 4-4 4-5 5-1 1-1 1-1 1-3 3-2 2-1 1-1 1-1 1-1 1-1 1-1 1-4 4-3 3-1 1-38 37h-1l-1 2-2 2-10 7v-3l1-1 1-1 1-1 1-1 2-2 1-1 1-1 1-1a76 76 0 0 0 6-6l1-1 1-1 2-2 1-1 1-1 1-1 1-1 1-1 1-1 1-1 1-1 3-4 2-2 2-2 2-2 2-1 3-3 1-1 1-1 1-2 2-1 1-1 1-1 1-1 1-1 2-2 1-1 1-1 1-1 1-1 1-1 1-1 1-1 1-1 1-1 1-1 1-1 1-1 1-1 1-1 2-2 1-1 1-1 1-1 1-1a168 168 0 0 0 8-8l1-1 1-1 1-1 4-4 3-3 1-1 2-2 1-1 1-1 1-1 1-1 1-1 2-2 1-1 1-1 1-1 1-1 1-1 1-1 14 1 2 1 1 1 3 2 1 1 3 2 1 1 1 1 2 2 2 1 1 1 2 2 2 1c3 2 5 4 8 4 2 0 5-3 4-6l1-1 1-1 1-1 2-2 1-1 1-1 1-1 1-2 2-2 1-1 3-3 1-1 2-2 1-2 2-2 1-1 2-2 2-2 1-1 1-2 1-1 1-1 1-1 3-3 1-1 1-2 1-1 2-2 1-1 1-1 3-3 3-4 2-2 1-1 3-3 1-1 1-2 1-1 1-1 1-1 1-1 1-1 2-2 1-1 1-2 2-1 1-1h4l-2-2v-1l1-1 3-3 1-1 2-2 1-2 1-1 1-1 1-1 5-5 1-1 1-2 1-1 1-1 1-1 1-1 5-5 2-3 1-1 1-1 1-1 3-3 1-1 1-2 2-2 1-1 1-1 1-1 5-5 1-2 1-1 1-1 1-1 1-1 3-3 1-1 1-1 1-1 1-1 1-1 1-2 1-1 5-5 1-2 3-3 1-1 1-1 1-1 3-3 1-1h1l1 4-1 1-3 4-2 1a87 87 0 0 0-6 8l-1 1-1 1-4 4-1 1-3 4a72 72 0 0 0-7 8l-5 5-6 7-4 5-5 5-3 4-2 2-2 2-1 1-1 1-1 1-1 1-1 1-1 1-1 2-1 1-1 1-1 1-1 1-1 1-1 1-1 1v1h-1l-1 2-3 3-1 1-1 1-1 1-1 1v1h-1v1h-1l-1 2-1 1-1 1-1 1-3 3v1h-1v1h-1l-1 2-1 1-1 1-3 3-1 1v1h-1v1h-1l-1 2z"/><path fill="#FAFBFB" d="m183 491-3 4-32 36-5 4-28-26c12 0 20-6 26-15l11-12c3-4 8-6 15-5l4 1 2 1 1 1 1 1 8 10z"/><path fill="#E9E9ED" d="m453 246-30 12v-11l30-1z"/><path fill="#0A3053" d="m143 535 5-4 8-4-18 18 5-10z"/><path fill="#063555" d="M181 568v3l-7 6 7-9z"/><path fill="#0E0F23" d="m171 478-4-1-2-5 6 6z"/><path fill="#191D61" d="m455 351 6-6-6 6zm-6 7 5-5-5 5zM311 478l6 5-6-5zm-56 23 5-5-5 5zm184-131 4-5-4 5zm34-39 4-5-4 5zM292 467h5-5zm57 2 4-4-4 4zm-85 23 4-4-4 4zm167-113 3-4-3 4zm-60 66 4-4-2 3-2 1zm108-120 3-4-3 4zM319 484l4 3-4-3zm40-26 3-3-3 3zm-110 49 3-3-3 3zm117-56 2-3-2 3zm-64 20 3 2-3-2zm-55 38 2-2v1l-2 1zm51-42 2 2-2-2z"/><path fill="#0E0F23" d="m163 469 2 2-2-2z"/><path fill="#191D61" d="m429 381 2-2v1l-2 1zm48-55 2-1-2 1zM253 503l1-1-1 1zm229-182 1-1-1 1zm-18 20 1-1-1 1zm6-6 1-1-1 1zm-1 1 1-1-1 1zM369 447l1-1-1 1zm-43 41h1-1z"/><path fill="#063555" d="m497 237 11-4c0-1 3 2 2 3l-8 52-3 25-2 8-5-5 4 2 13-84-12 3zm-73 27c-3-2-1-3 1-4a5961 5961 0 0 1 65-20l-62 21-4 3z"/><path fill="#0A3053" d="m309 439 11 4c8 2 16 1 23-3l4-1c-10 8-26 8-38 0zm103-111v-2c4-9 4-18 4-28l2-5v6c1 10-1 20-6 29zM192 490l3-1 11 3c7 2 14-1 22-2-6 5-14 5-21 3l-15-3zm169-132 8-3a477 477 0 0 1-8 3zm0 66 1-7v-18c4 8 3 17-1 25zm-64 14zm54-56z"/><path fill="#063555" d="M334 477c1 3-2 6-4 6-3 0-5-2-8-4 4 3 8 3 12-2zm-33-15h-14c5-4 8-4 14 0z"/><path fill="#0A3053" d="M299 435c4-1 7-3 9 3l-4-3-6 3h-1l2-3z"/><path fill="#063555" d="M260 488zm231-173-7-2c3-5 4 0 7 2zm-58-38-3-7c2 2 7 2 3 7zM195 553l-5 6 5-6zm274-225-4 5 4-5zm-51 56-4 5 4-5zm11-12-4 5 4-5z"/><path fill="#0A3053" d="m176 507 4-5-4 5zm79-39 4-5-4 5z"/><path fill="#063555" d="m449 350-4 5 4-5z"/><path fill="#0A3053" d="m395 346 5-4-5 4zm-33 52-3-6 3 6z"/><path fill="#063555" d="m268 481-4 4 4-4z"/><path fill="#0A3053" d="m405 338 4-5-4 5zM181 502l3-4-3 4z"/><path fill="#063555" d="m381 425-3 4 3-4z"/><path fill="#0A3053" d="m390 349 4-3-4 3z"/><path fill="#063555" d="m211 537-3 4 3-4zm156-97-2 3 2-3zm39-43-2 3 2-3zM221 527l-2 3 2-3zm236-186-2 3 2-3zm-71 78-2 3 2-3zm-38 42-2 3 2-3zm89-98-2 3 2-3zM271 478l-3 3 3-3z"/><path fill="#0A3053" d="m237 485 3-3-3 3z"/><path fill="#063555" d="m377 429-2 3 2-3z"/><path fill="#0A3053" d="m350 437 3-3-3 3z"/><path fill="#063555" d="m479 317-2 3 2-3z"/><path fill="#0A3053" d="m354 434 2-3-2 3zm-79 14-3 2h-1l4-2z"/><path fill="#063555" d="m429 281 3-3-3 3z"/><path fill="#0A3053" d="m357 389-3-3 3 3zm0 41 2-4-2 4zm-105 41 2-3-2 3zm8-9 3-3-3 3z"/><path fill="#063555" d="m307 467-3-2 3 2zm4 3-3-2 3 2z"/><path fill="#0A3053" d="m231 489 3-2-3 2z"/><path fill="#063555" d="m474 323-3 3 3-3zM339 472l-2 2 2-2zm93-103-2 3 2-3zM274 475l-2 2 2-2zm41-2-2-1 2 1zm5 4-2-1 2 1zm-133 85-2 2 2-2zm243-293-2-1 2 1zM248 500l-1 2 1-2zm103-42-1 2 1-2zm58-64-1 2 1-2z"/><path fill="#0A3053" d="m159 524 2-2-2 2z"/><path fill="#063555" d="m232 516-1 2 1-2zm164-107-2 2 2-2zm-39 42-1 2 1-2zm2-2-1 2 1-2zm14-15-2 2 2-2zm-28 31-2 2 2-2zm10-11-2 2 2-2zm-74 14-2 2 2-2zm102-45-2 2 2-2zm43-138 2-2-2 2z"/><path fill="#0A3053" d="m250 473 2-2-2 2z"/><path fill="#063555" d="m213 535-2 2 2-2zm4-4-2 2 2-2z"/><path fill="#0A3053" d="m387 350 3-1-3 1z"/><path fill="#063555" d="m215 533-2 2 2-2zm227-175-2 2 2-2z"/><path fill="#0A3053" d="m165 518 2-2-2 2zm3-3 2-2-2 2zm61-25 2-1-2 1z"/><path fill="#063555" d="m199 549-1 2 1-2z"/><path fill="#0A3053" d="m349 438 1-1-1 1z"/><path fill="#063555" d="m483 313-1 2 1-2zM362 446l-1 2 1-2zm8-9-1 2 1-2z"/><path fill="#0A3053" d="M360 426v-2 2z"/><path fill="#063555" d="m227 522-2 1 2-1z"/><path fill="#0A3053" d="m235 486 2-1-2 1zm6-4 1-1-1 1z"/><path fill="#063555" d="m322 479-2-1 2 1z"/><path fill="#0A3053" d="m174 509 1-2-1 2zm-2 2 1-1-1 1zm-2 2 1-2-1 2z"/><path fill="#063555" d="m317 475-2-1 2 1zm-98 55-2 1 2-1zm124-63-1 2 1-2zm-40-3-2-1 2 1zm50-8-1 2 1-2zm74-189-2-1 2 1zM225 523l-1 2 1-2zm177-119h-1l1-2v2zm-4 2-1 2 1-2zm42-46-1 2 1-2z"/><path fill="#0A3053" d="M420 292v-1 1z"/><path fill="#063555" d="m399 405-1 1 1-1z"/><path fill="#0A3053" d="m357 362 1-2-1 2zm-3 24-2-1 2 1z"/><path fill="#063555" d="m464 334-1 2 1-2zm7-8-1 2 1-2z"/><path fill="#0A3053" d="m411 330 1-2-1 2zm-2 3 1-2-1 2zm-9 9 2-1-2 1z"/><path fill="#063555" d="m451 348-1 2 1-2zm-40 44-1 2 1-2zm-22 24-1 2 1-2zm32-35-1 2 1-2z"/><path fill="#0A3053" d="m164 519 1-1-1 1z"/><path fill="#063555" d="M230 518v1-1zm205-152-1 1 1-1z"/><path fill="#0A3053" d="m359 359 1-1-1 1z"/><path fill="#063555" d="m439 362-1 1 1-1z"/><path fill="#0A3053" d="M419 293v-1 1z"/><path fill="#063555" d="m445 355-1 1 1-1zm-1 1-1 1 1-1zm9-10-1 1 1-1zm-10 11-1 1 1-1z"/><path fill="#0A3053" d="m358 360 1-1-1 1z"/><path fill="#063555" d="M238 510v1-1zm9-8-1 1 1-1zm-2 1v1-1zm0 1-1 1 1-1zm-1 1-1 1 1-1zm-1 1-1 1 1-1zm180-127-1 1 1-1zM242 507l-1 1 1-1zm182-129-1 1 1-1zM241 508l-1 1 1-1z"/><path fill="#0A3053" d="m173 510 1-1-1 1z"/><path fill="#063555" d="m240 509-1 1 1-1zm185-132-1 1 1-1zm9-10-1 1 1-1zm-12-78 1-1-1 1zM237 511v1-1zm-1 1v1-1z"/><path fill="#0A3053" d="m421 290 1-1-1 1z"/><path fill="#063555" d="M235 513v1-1zm0 1-1 1 1-1zm198-146-1 1 1-1z"/><path fill="#0A3053" d="m167 516 1-1-1 1z"/><path fill="#063555" d="m234 515-1 1 1-1zm-31 30v1-1zm1-1v1-1zm1-1v1-1zm1-1v1-1zm1-1v1-1zm274-225-1 1 1-1zM202 546v1-1zm275-226-1 1 1-1zM183 566l-1 1 1-1zm299-250h-1v-1l1 1zM185 564l-1 1 1-1zm307-248-1-1 1 1zM188 561l-1 1 1-1zm1-1-1 1 1-1zm1-1-1 1 1-1zm6-7v1-1zm1-1v1-1zm3-3v1-1zm1-1v1-1z"/><path fill="#0A3053" d="m187 495 1-1-1 1zm-30 31 1-1-1 1zm1-1 1-1-1 1z"/><path fill="#063555" d="m461 338-1 1 1-1z"/><path fill="#0A3053" d="m403 340 1-1-1 1z"/><path fill="#063555" d="m460 339-1 1 1-1zm-1 1-1 1 1-1zM223 525v1-1zm5-4-1 1 1-1z"/><path fill="#0A3053" d="m161 522 1-1-1 1z"/><path fill="#063555" d="m229 520-1 1 1-1z"/><path fill="#0A3053" d="m162 521 1-1-1 1z"/><path fill="#063555" d="m455 344-1 1 1-1zM229 519v1-1zm246-197-1 1 1-1z"/><path fill="#0A3053" d="m410 331 1-1-1 1zM163 520l1-1-1 1z"/><path fill="#063555" d="M462 336v1-1zm-1 1v1-1zM222 526v1-1z"/><path fill="#0A3053" d="m156 527 1-1-1 1z"/><path fill="#063555" d="M360 448v1-1z"/><path fill="#0A3053" d="M271 450v1h-1l1-1z"/><path fill="#063555" d="m404 400-1 1 1-1zm-41 45-1 1 1-1zm1-1-1 1 1-1zm39-43v1h-1l1-1zm-38 42-1 1 1-1zm42-47v1-1zm-120 66-1 1 1-1zm63-2-1 1 1-1z"/><path fill="#0A3053" d="m265 457-1-1h1v1zm1-2v1h-1l1-1zm1-1v1h-1l1-1zm1-1v1h-1l1-1zm1-1v1h-1l1-1zm1-1v1h-1l1-1z"/><path fill="#063555" d="m394 411-1 1 1-1zm-19 21-1 1 1-1zm18-20-1 1 1-1z"/><path fill="#0A3053" d="m356 431 1-1-1 1z"/><path fill="#063555" d="m425 286 1-1-1 1zm-34 128-1 1 1-1zm33-127 1-1-1 1zm-36 131-1 1 1-1zm12-14v1-1zm-31 35-1 1 1-1z"/><path fill="#0A3053" d="m347 439 1-1-1 1z"/><path fill="#063555" d="m371 436-1 1 1-1zm26-28-1 1 1-1z"/><path fill="#0A3053" d="m243 480 1-1-1 1zm-9 7 1-1-1 1z"/><path fill="#063555" d="m264 485-1 1 1-1z"/><path fill="#0A3053" d="m352 385-1-1 1 1z"/><path fill="#063555" d="m423 288 1-1-1 1z"/><path fill="#0A3053" d="m242 481 1-1-1 1z"/><path fill="#063555" d="m263 486-1 1 1-1z"/><path fill="#0A3053" d="m244 479 1-1-1 1z"/><path fill="#063555" d="m272 477-1 1 1-1z"/><path fill="#0A3053" d="m245 478 1-1-1 1z"/><path fill="#063555" d="m335 476-1 1 1-1z"/><path fill="#0A3053" d="m188 494 1-1-1 1z"/><path fill="#063555" d="m251 498-1 1 1-1zm1-1-1 1 1-1z"/><path fill="#0A3053" d="m184 498 1-1-1 1z"/><path fill="#063555" d="M425 265h-1 1zM253 496l-1 1 1-1z"/><path fill="#0A3053" d="m185 497 1-1-1 1zm1-1 1-1-1 1zm60-19 1-1-1 1zm-56 15 1-1-1 1zm1-1 1-1-1 1z"/><path fill="#063555" d="M419 383v1-1zm9-115-1-1 1 1zM262 487l-1 1 1-1zm21-21-1 1 1-1zm-4 4-1 1 1-1zm63-1-1 1 1-1zm72-80-1 1 1-1z"/><path fill="#0A3053" d="m358 391-1-1 1 1z"/><path fill="#063555" d="m413 390-1 1 1-1z"/><path fill="#0A3053" d="m359 392-1-1 1 1z"/><path fill="#063555" d="m308 468-1-1 1 1zm4 3-1-1 1 1zm120-193 1-1-1 1zM284 465l-1 1 1-1zm62-1-1 1 1-1zm-42 1-1-1 1 1zm-19-1-1 1 1-1z"/><path fill="#0A3053" d="m247 476 1-1-1 1z"/><path fill="#063555" d="m337 474-1 1 1-1zm-62 0-1 1 1-1zm1-1-1 1 1-1z"/><path fill="#0A3053" d="m249 474 1-1-1 1z"/><path fill="#063555" d="m250 499-1 1 1-1zm27-27-1 1 1-1zm63-1-1 1 1-1zm-27 1-1-1 1 1zm28-2-1 1 1-1z"/><path fill="#44A9EF" d="m403 537-6-2-1-6h-5l-1 8-6-1v-15h-8l-1 2 5 4c3 2 4 5 1 9l-1 1h-14v-6h9l-5-7-2-6c1-2 4-3 6-3h16c1 4-1 10 7 7v-7h6v22z"/><path fill="#46AAEF" d="m266 535-8 3-1-2 8-19c1-3 8-3 9-1l8 21-16-2zm36-14c-1 8-3 10-13 11v5h-6v-21c9-3 15-2 19 5z"/><path fill="#41AAF4" d="m435 526 2-5 1-2c3-4 6-4 9-2l2 5v1l2 4v1l2 5c-1 5-4 2-6 2h-8l-1 1h-5l2-10z"/><path fill="#46AAEF" d="m346 517 16-3v7h-9a58 58 0 0 1 6 8l1 4-1 2-11 1-3-2 3-2 4-1-3-5c-3-3-4-5-3-9z"/><path fill="#4EACEE" d="m316 521-1 9v7h-7l-1-16-3-3 3-2h8l4 1-3 4z"/><path fill="#58AADE" d="M418 537h-14v-22a543 543 0 0 1 23 1c-5 0-12-1-14 1-2 3-1 9-1 13v2c0 3 1 4 4 4h12l-1 1h-9m-13-17v13l2 3 2-3v-14l-2-3-2 4zm-89 1 3-4-4-1h-8l-3 2 3 3h-5c0-7 0-7 7-7h5c4 0 7 0 7 5h2l-1 12-2-10h-4z"/><path fill="#D0F3FD" d="M346 517c-1 4 0 6 3 9l3 5h-7l-2-10-1-3 4-1zm35 19c3-4 2-7-1-9l-5-4 1-2h8v15h-3z"/><path fill="#58AADE" d="m435 527-2 9a4846 4846 0 0 1-4-1l1-16h1l1 12-1 1h1a19623 19623 0 0 0 3-5zm-92-6 2 10h7l-4 1-3 2 3 2 11-1-5 2h-9l-2-5h-1l1-11z"/><path fill="#D0F3FD" d="M404 515z"/><path fill="#58AADE" d="M447 517c-3-2-6-2-9 2 1-5 4-6 9-2zm-107 17c-4 4-9 4-14 2v-1c5 2 10 1 14-1zm-12-19h9v1h-9v-1zm120 21c1-1 4 2 5-3l3 5-8-2z"/><path fill="#D0F3FD" d="m390 537 1-8-1 8z"/><path fill="#58AADE" d="M439 535h8-8zm10-13-2-5 2 5zm4 11-2-5 2 5zm-16-12-2 5 2-5z"/><path fill="#191D61" d="m234 522 3-3-3 3z"/><path fill="#58AADE" d="m451 527-2-4 2 4zm-91 6-1-4 1 4z"/><path fill="#D0F3FD" d="M396 530zm-30 1v6-6z"/><path fill="#58AADE" d="m342 518 1 3-2-3h1zm0 14-1 2h-1l2-2z"/><path fill="#D0F3FD" d="m408 538 3-1-3 1z"/><path fill="#58AADE" d="m326 535-2-1 2 1zm33 0 1-2-1 2zm-35-1-1-1v-1l1 2z"/><path fill="#D0F3FD" d="m421 538 2-1-2 1zm4 0 2-1-2 1zm-12 0 2-1-2 1z"/><path fill="#58AADE" d="m326 517 1-1h1l-2 1zm11-1 2 1-2-1zm90 0 2 1-2-1zm-103 2 1-1h1l-2 1zm15-1 2 1-2-1zm90 0 1 1v1l-1-2zm9 2-1 2 1-2zm-79 9-1-1 1 1zm-36-9 1-1-1 1z"/><path fill="#191D61" d="m246 510 1-1-1 1zm-2 2 1-1-1 1zm-1 1 1-1-1 1zm-1 1 1-1-1 1zm-1 1 1-1-1 1z"/><path fill="#D0F3FD" d="m418 538 1-1v1h-1zm-13-1h1v1l-1-1zm-26 0h1-1zm-10 0h1v1l-1-1z"/><path fill="#58AADE" d="m438 536 1-1-1 1zm-9-1-1 1 1-1z"/><path fill="#063555" d="M195 560zm-2 1 1-1-1 1z"/><path fill="#191D61" d="m233 523 1-1-1 1z"/><path fill="#58AADE" d="M323 532h-1v-1l1 1z"/><path fill="#FDFDFC" d="M208 246c-3-10-1-21 3-31l3-2 6-3h2l14 1 2 1 4 2 2 2 3 3c9 7 16 7 25 2s18-9 28-7c11 3 19 9 26 17l4 5c9 7 19 6 29 0 14-8 28-9 41 1l9 10v4c-2 6-3 13-7 18-9 14-24 21-40 25s-32 4-47 2c-20-2-39-5-57-12-20-9-39-19-48-40l-2 2m109-1h1v-1h1v-2h1l-1-6-3 2-1 1-2 2c-9 0-10 0-12-7l1-1h1l4-2h1l1-1h1c2-4 0-6-3-8v-1c-6-3-12-4-18-3s-7 4-3 9v1h1v1h1v2c-1 4-4 6-9 4l-5-4-2-4-3 4c-1 6 2 10 9 14v1a2015 2015 0 0 1 6 25l1 1 7-1h1l3-4h1l2-2 1-1v-2h1v-1h1v-2h1v-1h1l1-3h1l1-4h1l6-3h1l1-2h1v-1z"/><path fill="#F7A32D" d="m229 317 1-1h1-1 1l3 1-2 1v1h-1l-1 1-1 2-1 1c-5 7-8 14-9 22-3 14 3 26 16 32 10 5 21 7 33 3 32-9 51-32 59-64h2c1 0 0 0 0 0h5c17 0 33-1 48-8 6-3 11-8 17-12l1-1 2-1 6-6h1l1 3-2 9c-2 15-10 27-22 36-13 9-27 11-41 13-5 1-6 3-4 7 2 6 1 11-5 15l-6 6-15 5c-7 4-11 10-13 19l-1 13c0 6-2 10-8 12l-18 8c-8 3-15 8-21 14l-16 16h-1l-20-9-8-7c10-6 17-13 17-25 0-7-3-14-4-21 11-7 24-10 39-8h5l-2-3c-9-6-19-7-29-6s-18-2-23-11l-4-7v-2l-1-2c1-15 7-27 16-39l1-1 1-1 1-1 1-2 2-2z"/><path fill="#FDFDFD" d="M175 436c-10-7-16-16-17-27-2-16 9-27 25-25 11 1 20 6 28 15l1 6c5 16-4 30-20 33l-17-2z"/><path fill="#B2B2D1" d="m208 246 2-2c9 21 28 31 48 40a208 208 0 0 0 104 10c16-4 31-11 40-25 4-5 5-12 8-18l2 6 3 8c-1 9-7 16-14 22a78 78 0 0 1-46 18c-41 3-80-4-116-24-14-8-26-19-31-35z"/><path fill="#FCFCFB" d="m209 448 8 7 20 10c-9 9-19 16-32 15-13-2-24-9-32-19l-8-12c3-6 8-7 13-4 10 5 20 6 31 3z"/><path fill="#AC7343" d="m415 265-3-8-2-6-1-5v-9l-2-22 6-40c3-14 4-29 2-43-1-6-4-11-6-16l2-1h4c6 4 7 11 8 17 2 16 1 32-2 47l-6 42c-1 5 1 10 1 14l-1 30zm-85 112 6-6c6-4 7-9 5-15-2-4-1-6 4-7 14-2 28-4 41-13 12-9 20-21 22-36l2-9c6 20 0 38-15 49-12 9-27 12-42 14l-7 3 6 2-5 20-17-2z"/><path fill="#F4A531" d="M355 396c5 8 5 16 1 25-1-5-2-10-7-13-6-4-13-4-20 1-5 4-10 7-17 8l-4-8c4-16 16-24 31-21l13 4 1 1 1 1 1 2z"/><path fill="#B2B2D1" d="m165 449 8 12c8 10 19 17 32 19 13 1 23-6 32-15h1l10 2c-8 10-17 19-30 21h-10c-15-3-28-8-38-19-5-6-8-12-5-20z"/><path fill="#AC7343" d="m248 467-10-2 16-17c6-6 13-11 21-14l18-8c6-2 8-6 8-12l1-13c-1 9 1 16 9 23l-17 11-2 1-16 7-2 1-2 1-2 1-1 1-1 1-1 1-1 1h-1l-17 17z"/><path fill="#F3A231" d="M216 313c-4-12-2-23 6-33 6 4 11 9 17 12l14 8-3 1h-6l-22 9-6 3z"/><path fill="#F7D7A5" d="M228 171c7-23 15-45 29-65l14-13c2-2 5-2 9-2v1l-11 7c-14 15-22 33-30 51-1 1 0 3 1 4 3 7 0 20-6 22s-6 6-7 10l-2 7-1-5s-1 0 0 0l3-13 1-4z"/><path fill="#B1B1D3" d="M344 435c-12 7-26 6-35-3 4-3 7-5 12-5 4-1 8-4 11-6l6-6 7-1c3 7 2 14 0 20l-1 1zm-169 1 17 2c16-3 25-17 20-33l-1-6c7 7 10 15 10 24-1 15-14 24-30 21l-16-8z"/><path fill="#B0AFCC" d="M328 316h-1l-48-8-24-8 3-3 42 10 33 5-5 4z"/><path fill="#F6F4EE" d="M345 434c2-6 3-13 0-20-1-5-4-5-7-3l-10 7c-6 5-9 5-16-1 7-1 12-4 17-8 7-5 14-5 20-1 5 3 6 8 7 13l-11 13z"/><path fill="#AA7344" d="m207 367 5 7c5 9 13 12 23 11s20 0 29 6l2 3c-14-6-28-5-42 0-1 1-4 0-5-1-7-7-11-16-12-26z"/><path fill="#F8D69E" d="m411 115-2 1-18 7-30 24c-5 5-6 5-12 0 3 0 6 3 8-1l1-1 1-1 1-1 1-1 1-1 1-1 1-1 1-1 1-1 2-1 1-1 1-1 1-1a654 654 0 0 1 32-20l8 2z"/><path fill="#AA7344" d="M399 296c-6 4-11 9-17 12-15 7-31 8-48 8 9-5 18-6 28-7 13-2 25-6 37-13z"/><path fill="#F7D7A5" d="m352 392-13-4c-15-3-27 5-31 21-2-7 0-13 6-19l1-1 1-1 2-1 2-1 2-1h20l4 2 6 5z"/><path fill="#AA7344" d="m258 297-3 3h-2l-14-8c-6-3-11-8-17-12l4-1 32 18z"/><path fill="#EFF0F6" d="m426 273 1 3-11 13c-2-4-3-8 0-12l5-9 5 5z"/><path fill="#AA7344" d="m216 313 6-3 22-9-6 4-19 14-3-6z"/><path fill="#191C69" d="m269 447 1-1 2-1 2-1h2l4-1 12-7 2-1h5l-2 3-22 10-4 2-1 1-1 1-1 1-1 1-1 1-1 1h-1l1-5 1-1 1-1 1-1 1-1z"/><path fill="#E0D0BF" d="M329 137a413 413 0 0 1 17 6l-4-1c-11-4-22-5-34-5l-1-2h15l7 2z"/><path fill="#AA7344" d="m206 386-12-6 9-3 3 9z"/><path fill="#D7A463" d="M234 316h-3a39 39 0 0 1 9-10h1l6-2-13 12z"/><path fill="#0E0F23" d="m184 491-9-10 14 6-5 4z"/><path fill="#231951" d="m247 304-6 2-3-1 6-4h6v1c-2 0-2 1-3 2z"/><path fill="#E0D0BF" d="M342 385h-19c6-3 12-3 19 0z"/><path fill="#231951" d="m298 112 5 11h-1l-4-11z"/><path fill="#E0D0BF" d="M357 146c-2 4-5 1-8 1h-1v-3l9 2zm-130 29z"/><path fill="#231951" d="M322 135h-15v-1l15 1z"/><path fill="#E0D0BF" d="m223 189 2 4-1 2-2 2 1-8zm188-74-8-2 12 2h-4z"/><path fill="#231951" d="m294 105 4 7-4-7zm10 21z"/><path fill="#E0D0BF" d="m214 213-3 2 2-5h1v3z"/><path fill="#231951" d="M280 92v-1l6 3h-1l-5-2zm49 44-7-1 7 1zm-37-35 2 4-2-4z"/><path fill="#E0D0BF" d="m346 387-4-2 4 2zM228 171l-1 4 1-4zm-8 29 1-3h1l-2 3z"/><path fill="#231951" d="m240 306-2 2 2-2z"/><path fill="#E0D0BF" d="m398 115-2 1 2-1z"/><path fill="#231951" d="m303 123 1 3-1-3z"/><path fill="#D7A463" d="m229 317-2 2 2-2z"/><path fill="#231951" d="m286 94 2 2h-1l-1-2zm3 3 1 2-1-2z"/><path fill="#F6F4EE" d="m344 435 1-1-1 1z"/><path fill="#E0D0BF" d="m396 116-2 1 2-1zm-29 20-1 1 1-1z"/><path fill="#0E0F23" d="m173 479-2-1 2 1z"/><path fill="#E0D0BF" d="m401 114-2 1 2-1zm-55 29h2v1l-2-1zm-130 63 1-2-1 2z"/><path fill="#F7D7A5" d="m355 396-1-2 1 2z"/><path fill="#D7A463" d="m227 319-1 2 1-2z"/><path fill="#E0D0BF" d="m217 204 1-2-1 2z"/><path fill="#AA7344" d="m207 363 1 2-1-2z"/><path fill="#E0D0BF" d="m318 387-2 1 2-1zm4-2-2 1 2-1zm-2 1-2 1 2-1z"/><path fill="#AC7343" d="M410 288h-2 2z"/><path fill="#AA7344" d="m402 294-2 1 2-1z"/><path fill="#E0D0BF" d="m215 208 1-2-1 2zm-1 2v-2h1l-1 2zm155-76v1-1zm2-1-1 1 1-1zm-3 2v1-1z"/><path fill="#231951" d="m288 96 1 1h-1v-1z"/><path fill="#D7A463" d="M230 316h1-1z"/><path fill="#B0AFCC" d="M329 316h1-1z"/><path fill="#D7A463" d="M225 321v1-1zm0 1-1 1 1-1zm-1 1-1 1 1-1z"/><path fill="#231951" d="m290 99 1 1-1-1zm1 1 1 1h-1v-1z"/><path fill="#0A3053" d="m266 450-1 1v-1h1z"/><path fill="#E0D0BF" d="m359 144-1 1 1-1zm-141 58 1-1-1 1z"/><path fill="#F7D7A5" d="m354 394-1-1 1 1z"/><path fill="#E0D0BF" d="m360 143-1 1 1-1zm-141 58v-1h1l-1 1zm146-63-1 1 1-1z"/><path fill="#0E0F23" d="m175 481-1-1 1 1z"/><path fill="#AA7344" d="M206 386h1-1z"/><path fill="#E0D0BF" d="m363 140-1 1 1-1z"/><path fill="#F7D7A5" d="m353 393-1-1 1 1z"/><path fill="#E0D0BF" d="m316 388-1 1 1-1zm45-246-1 1 1-1zm-46 247-1 1 1-1z"/><path fill="#191D61" d="m388 427 2-3-2 3zm8-9 2-3-2 3zm12-14 3-3-3 3zm19-21 2-2-2 2zm-52 58 1-2-1 2zm17-19 1-1-1 1zm-9 10 1-1-1 1zm28-31 1-2-1 2zm9-10 1-2-1 2zm-19 21 1-1-1 1zm12-13v-1 1zm4-5 1-1-1 1zm-1 1 1-1-1 1zm-1 1 1-1-1 1zm0 1v-1 1zm-1 1v-1 1zm-28 31v-1 1zm-5 5 1-1-1 1zm4-4v-1 1zm14-16 1-1-1 1zm-12 14v-1 1zm3-4 1-1-1 1zm5-5v-1 1zm-4 4 1-1-1 1zm-12 14v-1 1zm-2 2v-1 1zm30-33v-1 1zm-29 32v-1 1zm28-31v-1 1zm12-14 1-1-1 1zm-13 15v-1 1zm-25 28v-1 1zm0-1 1-1-1 1zm24-26v-1 1zm-1 1v-1 1zm22-25 1-1-1 1zm-1 1 1-1-1 1zm-30 34zm32-36 1-1-1 1zm-7 8 1-1-1 1zm5-5v-1 1zm-1 1v-1 1zm-1 1v-1 1zm-20 13h1l2 2h-3v-2z"/><path fill="#41AAF4" d="m429 535-1 1h-12c-3 0-4-1-4-4v-2c0-4-1-10 1-13 2-2 9-1 14-1l2 1 1 2-1 16zm-24-16 2-3 2 3v14l-2 3-2-3v-14zm-82 13-1-1 1-12 1-1 2-1 2-1h9l2 1 2 1 2 3-1 11-2 2c-4 2-9 3-14 1l-2-1-1-2m7-11c-3 2-5 5-2 7 1 2 4 3 7 2 1 0 3-3 3-5 0-3-3-4-6-4h-2z"/><path fill="#FAFCFC" d="M432 531v1h-1l1-1z"/><path fill="#F7A32E" d="M291 100v1l3 4 4 7 4 11 2 3 2 8 1 1 1 2 2 2 38 8h1c6 5 7 5 12 0l30-24 17-7c3 5 6 10 7 16 2 14 1 29-2 43l-6 40 2 22v9l-9-9c-13-10-27-9-41-1-10 6-20 7-29 0l-4-5c-7-8-15-14-26-17-10-2-19 2-28 7s-16 5-25-2l-3-3-3-2-3-2-2-1c-5-2-9-4-14-1h-2c-4 0-2-2-2-3l7-12v-2l2-7c1-4 1-8 7-10s9-15 6-22c-1-1-2-3-1-4 8-18 16-36 30-51l11-7 5 2 2 2 1 1 2 2 1 1m-16 114 2-1c4-6 6-13 4-20-2-8-10-12-18-8s-13 16-10 26c2 4 4 7 9 8s10 0 13-5m136-33 2-19v-25c-1-5-5-7-10-5-10 3-18 10-25 18-2 4-2 7 1 10l7 10 15 21c1 2 3 3 5 3l3-4 2-9m-144-72c-10 13-15 28-20 44-1 3 2 6 6 4l32-15c3-1 5-4 4-8-2-9-5-17-11-24-3-4-6-4-11-1m81 109 5 9c3-7 2-12-2-16-5-3-12-3-17 0-4 4-5 8-3 13 4-6 8-10 17-6m-2-26c3-1 6-3 6-7 0-2-2-5-4-5-3-1-7 0-10 1-2 0-3 4-3 6s3 3 5 4l6 1m-71-26c-1 3-2 6-1 8l9 5c2 0 5-1 5-3v-6c-2-5-7-6-13-4z"/><path fill="#08066A" d="M302 233h-1l-3 1c-2 5 0 8 4 10s8 2 12-1l1-2s1 0 0 0v-2l1-1 3 4-1 2-1 1-1 1-2 2c-3 1-6-1-7 3l-2 4-2 3-1 1-1 2-1 1-1 2-1 1-2 2-2-3 1-1 1-2 1-1 2-3v-2c-4-3-7-5-11-1l-4 4-1 9-3-17-2-5v-1c0-2-4-4 1-4 7 3 12 0 13-8l-2-1-1-1-1-1h-1v-1l-1-1c0-2-4-6 2-6v1l3 1 3 1a31 31 0 0 0 8 0l5-2 2 8-2 1-5 2z"/><path fill="#B1B1D3" d="M292 232c-1 8-6 11-13 7l-5-7 5 3c5 2 8 0 9-4l1-1 1 1 2 1zm22 11c-4 3-8 3-12 1s-6-5-4-10h3c2 7 3 7 12 7h1v2z"/><path fill="#191D61" d="m274 232 4 7c-4 1 0 3 0 5-7-3-10-7-9-13l3-4 2 5zm14-11c-6 0-2 4-2 6-4-5-3-8 3-9s12 0 18 4l-5 2-14-3z"/><path fill="#F7D7A5" d="m224 195-6 12c0 1-2 3 2 3l-6 3v-3l1-2 1-2 1-2 1-2 1-1 1-1 2-3 2-2z"/><path fill="#191D61" d="m278 245 2 5 3 17h-1l-4-22z"/><path fill="#1F135D" d="M282 267h1l1-8 3 9-3 2-2-3z"/><path fill="#FCF9E7" d="M222 210c5-3 9-1 14 1l-14-1z"/><path fill="#1F135D" d="m294 264 2 3-3 4-1-1-3-2 5-4z"/><path fill="#191D61" d="m309 230-2-8c3 2 5 4 2 8z"/><path fill="#1F135D" d="m319 242-3-4 3-2v6zm-11 9c0-4 3-2 6-3l-6 3zm-17 20h-6 6z"/><path fill="#191D61" d="m302 233 5-2-5 2z"/><path fill="#FCF9E7" d="m244 216 3 3-3-3z"/><path fill="#1F135D" d="m305 255 2-4-2 4z"/><path fill="#FCF9E7" d="m238 212 3 2-3-2z"/><path fill="#1F135D" d="m303 258 2-3-2 3zm11-10 2-2-2 2zm-17 19 1-2-1 2z"/><path fill="#191D61" d="M301 234h-3l3-1v1z"/><path fill="#1F135D" d="m318 244 1-2-1 2zm-19 20 1-2-1 2zm2-3 1-2-1 2z"/><path fill="#B1B1D3" d="M315 239v2h-1l1-2z"/><path fill="#191D61" d="m308 231 1-1-1 1zm-22-3zm3 2h-1 1z"/><path fill="#1F135D" d="M303 259v-1 1zm-2 3v-1 1zm17-17v-1 1z"/><path fill="#191D61" d="M287 229h1-1z"/><path fill="#1F135D" d="M317 246v-1 1zm-25 25h-1l1-1v1zm-7 0-1-1 1 1z"/><path fill="#FEFEFB" d="m250 302 3-2h2l24 8 48 8c-8 32-27 55-59 64-12 4-23 2-33-3-13-6-19-18-16-32 1-8 4-15 9-22l1-1 1-2h1v-1h1v-1l2-1 13-13 3-2z"/><path fill="#D7A463" d="m230 320-1 2 1-2zm2-2zm-1 1v1-1zm-2 3-1 1 1-1z"/><path fill="#191D61" d="M292 436a258 258 0 0 1-16 8v-1l16-7z"/><path fill="#0A3053" d="M276 443v1h-2l2-1zm-2 1-2 1 2-1zm-2 1-2 1 2-1z"/><path fill="#191D61" d="m294 435-2 1 2-1z"/><path fill="#0A3053" d="m269 447-1 1 1-1zm-2 2-1 1 1-1zm1-1-1 1 1-1z"/><path fill="#F8D69E" d="m348 147-38-8-1-1c11-1 22 0 33 4l4 1 2 1v3z"/><path fill="#D7A463" d="m250 302-3 2c1-1 1-2 3-2z"/><path fill="#EFF0F6" d="M330 521h2c3 0 6 1 6 4 0 2-2 5-3 5-3 1-6 0-7-2-3-2-1-5 2-7z"/><path fill="#FC62A9" d="m411 182-2 8-3 4c-2 0-4-1-5-3l-15-21-7-10c-3-3-3-6-1-10 7-8 15-15 25-18 5-2 9 0 10 5v25l-2 20zm-144-73c5-3 8-3 11 1 6 7 9 15 11 24 1 4-1 7-4 8l-32 15c-4 2-7-1-6-4 5-16 10-31 20-44z"/><path fill="#030271" d="m276 213-1 1-9 4c-4 0-7 0-8-5l4-1v-4h-1l-1-1-4 2-2-1c-1-7 1-14 6-19 3-2 7-5 12-3l-3 3c-4 5-4 8 0 11l2 1h4l1-1 1-2 3-5v7l-4 13z"/><path fill="#231951" d="M347 218c-8-4-12 0-16 6-2-5-1-9 3-13 5-3 12-3 17 0 4 4 5 9 2 16l-6-9zm-71-5 4-13v-7l-3 4c0-7-2-9-8-8l3-3c-5-2-9 1-12 3-5 5-7 12-6 19l2 1 2 4c1 5 4 5 8 5l9-4c-3 5-8 6-13 5s-7-4-9-8c-3-10 2-22 10-26s16 0 18 8c2 7 0 14-5 20z"/><path fill="#FCF9E7" d="m345 192-5-1c-2-1-5-2-5-4s1-6 3-6c3-1 7-2 10-1 2 0 4 3 4 5 0 4-3 6-7 7zm-70-26c6-2 11-1 13 4v6c0 2-3 3-5 3l-9-5c-1-2 0-5 1-8z"/><path fill="#DD668F" d="m294 264-5 4h-2l-3-10 4-4 11 1v2l-2 3-1 1-1 2-1 1z"/><path fill="#E9E9ED" d="m288 221 14 3h-8l-1-1h-2v-1h-3v-1z"/><path fill="#1F135D" d="m299 255-11-1c4-4 7-2 11 1zm-11-1-4 4 4-4z"/><path fill="#191D61" d="M294 224h6-6z"/><path fill="#1F135D" d="m297 260 2-3-2 3z"/><path fill="#191D61" d="m292 232-2-1 2 1z"/><path fill="#1F135D" d="M314 241h1l-1 2v-2zm-19 22 1-2-1 2z"/><path fill="#191D61" d="M288 222h2-2zm3 1h2-2z"/><path fill="#1F135D" d="m296 261 1-1-1 1z"/><path fill="#191D61" d="m290 231-1-1 1 1z"/><path fill="#1F135D" d="m294 264 1-1-1 1zm21-23v-1 1c1 0 0 0 0 0z"/><path fill="#08066A" d="m286 271-2-1 3-2h2l3 2-1 1h-5z"/><path fill="#EFF0F6" d="M269 189c6-1 8 1 8 9h-1v2l-1 1h-5l-1-1v-1c-2-3-2-6 0-10z"/><path fill="#B0AFCC" d="m258 213-1-4 3-2 1 1 1 1v3l-4 1z"/><path fill="#231951" d="M269 189c-2 4-2 7 0 10-4-2-4-5 0-10zm-7 23-1-3 1 3zm9-11h3-3zm-10 7-1-1 1 1zm14-7 1-1-1 1zm-6-1 1 1-1-1zm7 0v-2 2z"/><path fill="#1F135D" d="M289 268h-2 2z"/></svg>