<svg xmlns="http://www.w3.org/2000/svg" xmlns:xlink="http://www.w3.org/1999/xlink" width="200" height="201" fill="none" xmlns:v="https://vecta.io/nano"><path fill="#c89514" d="M0 1.114h199.084v199.772H0z"/><g opacity=".78"><path d="M152.12 15.357l5.563 3.651 1.293.392 7.156 6.307 5.623 5.401 3.999 4.375-.661 3.259-.151.724-.15.724-.662 3.349-.09.422-1.202 5.974-.662 3.259-.601 2.957-1.714 8.539v10.531l-4.962 11.708-4.33 10.169.722 22.299-.722 22.238s-1.082 9.147-8.449 17.927c-8.089 9.626-21.469 11.252-25.048 11.252-1.293 0-3.007 0-4.871-.06h-.15-.15c-4.24-.091-9.442-.332-13.471-.815-3.549-.423-6.195-1.056-6.586-1.961-.511-1.268-3.127.935-6.915 2.625-2.586 1.177-5.743 2.112-9.171 1.539-.06 0-.12-.031-.18-.031s-.09-.03-.15-.03c-1.173-.211-2.376-.633-3.578-1.267 3.909 1.328-18.733-4.456-18.733-4.456s-20.808-10.149-22.431-24.723-1.624-42.124-1.624-42.124l-.631-1.841-6.645-19.644-.782-7.876-1.714-17.139-.301-3.168-.331-3.229-.511-5.069-.12-1.267-.18-1.75 8.78-6.095 9.833-8.419 6.164-3.681 4.059-3.078c2.375 2.233 4.661 5.643 6.435 7.332l4.21 3.983.481.543 4.21 4.707 2.195 2.444 7.638 8.539h39.57l6.856-6.729 2.346-2.293 4.54-4.466 4.45-4.375 3.398-3.349 3.969-3.923 1.925-1.901.39-.392.451-.422.181-.181 1.744-1.72.451.302z" fill="#000"/></g><path d="M83.532 169.066s14.493 26.252 39.15 1.267c0-.03-12.057-7.121-39.15-1.267z" fill="#e0e2d5"/><path d="M122.712 170.212s-.12-.09-.36-.181c-.842-.422-3.158-1.418-7.037-2.233-3.097-.663-7.216-1.176-12.388-1.146h-.03-.271-.3c-5.202.09-11.457.694-18.763 2.293l-.15.03.06.121c0 .03.391.694 1.113 1.69.271.392.632.845 1.022 1.358.662.844 1.504 1.78 2.466 2.715 1.594 1.569 3.608 3.169 5.984 4.345a18.11 18.11 0 0 0 5.713 1.811 16.5 16.5 0 0 0 2.435.181c3.037 0 6.164-.785 9.322-2.323 3.548-1.72 7.156-4.406 10.825-8.057.15-.151.3-.272.421-.422l.09-.091-.151-.091zm-11.877 8.751c-3.789 1.75-7.487 2.384-11.095 1.871-1.894-.272-3.608-.815-5.172-1.569-2.496-1.177-4.6-2.806-6.284-4.436a30.41 30.41 0 0 1-2.406-2.625c-.391-.483-.722-.935-1.022-1.358-.601-.845-.992-1.478-1.143-1.72 7.217-1.539 13.381-2.172 18.552-2.263h.331.301.24c4.902-.03 8.841.453 11.848 1.056 3.698.755 6.013 1.69 7.036 2.173.24.12.421.211.511.241l-.481.483c-3.819 3.742-7.547 6.457-11.216 8.147z" fill="#000"/><path d="M97.695 121.45s-22.612 15.812-19.785 29.179 3.638 20.247 7.277 20.247 12.93.815 16.749-2.836l1.804-7.695s-9.682 11.406 18.582 9.717c0 0 13.622-15.389 0-32.71s-16.537-27.64-16.537-27.64l1.202-13.759s4.601-2.022-3.969-13.76l-1.082-26.735-4.24 30.778-6.044 12.553c0-.03 13.772 16.325 6.044 22.661z" fill="#f4f4f5"/><path d="M102.055 160.436c9.748 0 17.65-5.782 17.65-12.915s-7.902-12.914-17.65-12.914-17.651 5.782-17.651 12.914 7.902 12.915 17.651 12.915z" fill="#262626"/><path d="M102.055 163.966c4.118 0 7.457-3.35 7.457-7.483S106.173 149 102.055 149s-7.457 3.35-7.457 7.483 3.339 7.483 7.457 7.483z" fill="#1e1e1d"/><g fill="#fff"><path d="M89.636 140.581a8.9 8.9 0 0 0-.752.754c-.18.212-.481.483-.511.755-.12.573.601.664 1.022.603.481-.06.962-.332 1.233-.754.241-.362.361-.935.06-1.298-.722-.844-2.105.725-1.203 1.328.331.211.872.151 1.022-.271.18-.483-.481-.664-.842-.513-.541.241-.511.935-.15 1.327.451.513 1.383.604 2.015.785.24.06.511-.272.271-.483l-1.113-.905-.271.483 1.353.362c.271.06.632.211.872-.031.18-.181.18-.482.03-.694-.21-.301-.722-.271-.872-.543l-.18.423c.211-.03.391.181.391.392s-.15.362-.331.453c-.391.181-.992-.061-.902-.544 0-.06.09-.301.18-.241.06.03.09.211.09.241.06.151.12.332.21.483a3.39 3.39 0 0 0 .722.875c1.353 1.117 3.187 1.026 4.841.875.241-.03.421-.392.15-.513-.932-.422-1.954-.724-2.977-.875-.301-.03-.631-.03-.812.242a.56.56 0 0 0-.06.211c-.03.121 0 .121.09 0-.03-.03-.06-.03-.09-.06-.21-.212-.391-.362-.511-.664l-.451.332c.932 1.116 2.436 1.146 3.759 1.086.361 0 .361-.573 0-.573-1.173.03-2.526.06-3.368-.936-.21-.271-.571.061-.451.332.18.392.481.815.902.966.15.06.331.06.451-.03.06-.061.12-.121.15-.181.03-.031.03-.212.06-.242.12-.09.571.061.662.061l.752.15c.541.151 1.082.332 1.594.574l.15-.513c-1.112.09-2.285.211-3.368-.151-.451-.151-.902-.392-1.263-.724a3.48 3.48 0 0 1-.421-.513c-.15-.242-.18-.483-.271-.724-.15-.332-.541-.423-.872-.242-.361.211-.481.664-.391 1.056.211.845 1.293 1.087 1.924.543.752-.603.301-1.87-.722-1.689-.181.03-.241.271-.181.422s.18.272.331.332c.06.03.15.06.241.09l.24.091c.15.03.18.03.06 0-.511-.181-1.082-.272-1.624-.422-.24-.061-.511.271-.271.482l1.113.906.271-.483-1.323-.362c-.18-.061-.391-.151-.481-.332-.06-.091-.09-.242-.03-.332.06-.06.15-.06.21 0-.03-.091-.06-.181-.06-.272-.03.151-.24.061-.24-.09s.301-.513.481-.393c.331.212-.18.815-.331.936a.98.98 0 0 1-.481.211c-.09.03-.18.03-.301.03-.06 0-.09 0-.15-.03s-.06-.03.03 0c.09-.211.361-.452.511-.634l.541-.513c.301-.241-.09-.663-.361-.422z"/><path d="M96.973 143.629c.12-.272.241-.724.541-.815.331-.121.752-.121 1.082-.151.722-.06 1.443-.09 2.165-.06 1.443.03 2.857.271 4.27.664.03-.181.06-.362.06-.543h-7.998c.03.181.06.362.06.543 1.473-.423 3.037-.272 4.54 0 .06-.181.09-.362.15-.543-1.924-.302-3.999-.574-5.773.452-.18.091-.18.302-.06.453.271.302.631.392 1.022.422.541.03 1.082 0 1.624 0h3.488c.361 0 .361-.573 0-.573h-3.067-1.534c-.391 0-.872.06-1.143-.272-.03.151-.03.302-.06.453 1.624-.935 3.578-.664 5.352-.392.361.06.511-.483.15-.543-1.593-.302-3.247-.453-4.811 0-.301.09-.24.543.06.543h7.998c.301 0 .391-.453.06-.543-1.564-.453-3.187-.694-4.811-.694-.812 0-1.624.03-2.436.15-.301.031-.692.031-.932.242-.271.211-.391.633-.511.935-.15.302.331.604.511.272z"/><path d="M102.446 144.051c.361 0 .361-.573 0-.573s-.361.573 0 .573z"/><path d="M100.371 143.387l-1.082-.452c-.331-.121-.692-.332-1.052-.393-.661-.06-.752.906-1.473.694-.03.182-.06.363-.06.544l7.457.12v-.573l-1.804.06c-.271 0-.421.393-.151.513 1.624.755 3.428.966 5.142.543.211-.06.271-.331.12-.482-.992-.875-2.195-1.358-3.518-1.419-.27 0-.391.393-.15.513l1.714.815.06-.513c-.601.211-1.233.242-1.864.121-.361-.061-.511.452-.151.543.752.211 1.534.302 2.286.272.481-.031 1.413 0 1.623-.604s-.691-.905-1.112-1.056c-.692-.272-1.413-.362-2.135-.332.03.181.06.362.06.543.842-.271 1.834-.573 2.706-.241.211.06.391.181.542.332.27.271 0 .543-.241.724-.421.302-.932.362-1.413.211l.06.513c.722-.332 1.473-.483 2.285-.453.271.031.391-.392.15-.513l-2.255-1.176-.06.513c1.173-.242 2.376.03 3.368.694v-.483a2.93 2.93 0 0 1-1.955.332v.543c.782-.121 1.534-.091 2.316 0l-.151-.513c-.18.121-.511.362-.751.211-.301-.181.27-.392.421-.422.451-.061.872.12 1.293.271.721.242 1.563.393 2.195-.181.09-.09.12-.301 0-.392-1.233-1.056-2.917-1.026-4.481-.905-.33.03-.361.422-.06.543a8.79 8.79 0 0 0 3.639.694c.36 0 .36-.573 0-.573h-.782c-.361 0-.361.573 0 .573h.782v-.573c-1.203.03-2.376-.212-3.488-.664-.031.181-.061.362-.061.543 1.353-.091 2.947-.211 4.06.724v-.392c-.481.452-1.233.151-1.804-.03s-1.203-.362-1.775-.121c-.451.181-.811.664-.481 1.116.391.544 1.083.302 1.534 0 .24-.15.12-.482-.15-.513-.812-.12-1.624-.09-2.466.031-.271.03-.271.513 0 .543.842.151 1.654 0 2.375-.393.211-.12.181-.362 0-.482-1.112-.755-2.465-1.026-3.788-.755-.241.061-.271.393-.06.513l2.255 1.177.15-.513c-.902-.06-1.744.121-2.556.513-.24.121-.15.453.06.513.662.211 1.383.091 1.955-.332s.812-1.026.24-1.569c-1.022-.935-2.586-.573-3.758-.211-.301.09-.241.573.06.543.511-.03.992.03 1.473.151.211.06.451.121.632.211l.33.181c.091.061.241.091.121.181-.151.121-.542.121-.722.121-.271.03-.541.03-.782.03-.541 0-1.082-.09-1.623-.241-.061.181-.091.362-.151.543a4.79 4.79 0 0 0 2.165-.121c.211-.06.301-.392.06-.513l-1.714-.815-.15.513c1.143.061 2.255.483 3.127 1.268l.12-.483c-1.563.392-3.247.241-4.72-.483l-.151.513 1.804-.06c.361 0 .361-.543 0-.574l-7.457-.12c-.331 0-.361.452-.06.543a1.01 1.01 0 0 0 .782-.03c.301-.121.391-.302.601-.513.271-.272.782.09 1.053.211l1.142.453c.482.271.632-.272.301-.393z"/><path d="M112.699 141.818c.812-.211 1.474.513 1.744 1.207.151.393.241.845.331 1.268s.241.875.241 1.327c0 .091 0 .272-.06.332-.121.091-.241-.06-.331-.151-.271-.332-.421-.784-.602-1.146l-.511-1.298c-.09-.211-.15-.422-.21-.664l-.09-.332c0-.03-.03-.12-.061-.181 0-.03 0-.03-.03-.06-.09.03-.12.06-.06.06 0 .031.181.121.211.151a1.66 1.66 0 0 1 .21.272c.121.181.241.392.331.603.18.423.271.906.241 1.358l.511-.151-.782-1.84c-.06-.181-.331-.181-.451-.061-.391.393-.12.905.03 1.328l.812 1.75c.06.121.27.181.391.091.391-.272.661-.906.3-1.328-.15-.181-.451-.211-.601 0a.33.33 0 0 0 .271.513c.36.03.36-.543 0-.573h-.03l.24.15c0 .031 0 .091.03.121-.03.06-.09.121-.12.181h-.211v.091c0 .03 0 .09-.03.151a.47.47 0 0 1-.18.241l.391.09-.632-1.327c-.09-.211-.21-.423-.27-.664-.03-.121-.12-.302-.03-.392-.151-.03-.301-.03-.451-.061l.781 1.841c.121.272.512.121.512-.151.03-.573-.091-1.146-.331-1.69-.181-.422-.511-.995-.962-1.207-.181-.09-.421-.09-.572.031-.24.211-.15.513-.09.754l.632 1.81.781 1.66c.241.392.752.785 1.203.422.361-.271.331-.814.271-1.207l-.391-1.901c-.181-.603-.451-1.207-.932-1.629-.451-.362-1.053-.573-1.624-.392-.331.151-.18.694.18.603zm4.541 1.6c.03 0 .06-.031.09-.031 0 .03-.03.031-.09.031.06-.031.12-.031.15 0h-.06.06.03c-.06-.031.03 0 .03.03.03 0 .03.03.06.03-.03-.151-.03-.302-.06-.453l-.03.03c.03-.06.06-.03.03-.03-.03.03.09-.03.03-.03h-.03.06-.03.06-.03-.03s.06.03.03.03c-.03-.03-.06-.03-.09-.06-.06-.03-.12-.091-.21-.121-.211-.121-.451-.181-.662-.03a.63.63 0 0 0-.27.573.5.5 0 0 0 .15.362c.09.091.18.151.301.212.24.09.541.03.781-.121.121-.091.181-.241.091-.392-.091-.121-.241-.181-.391-.091-.03 0-.06.03-.06.03h-.03c-.031 0 .06-.03.03 0-.061.03-.091.031-.151.031h.06-.15.06-.06s-.09-.031-.03 0 0-.001-.03-.031c0 0-.06-.06-.03 0-.03-.03.03.061 0 .031v-.031-.06.06-.12.06c0-.03.03-.06.03-.091 0 0-.03.061-.03.031v-.031l.03-.03-.03.03c-.03.031-.03 0 0 0h.03c.03-.03-.03.031-.03.031h.06-.06.06c.03 0 .09.03.03 0s0 0 .03 0 .03.03.06.03c.06.03.121.09.211.121a.58.58 0 0 0 .3.09.48.48 0 0 0 .331-.151c.06-.06.09-.151.09-.241s-.06-.151-.12-.211c-.18-.151-.451-.182-.691-.121-.151.06-.241.181-.211.332.03.241.18.362.331.302z"/></g><path d="M121.72 91.698c13.531-14.393 18.974-17.622 24.837 5.462-8.269-5.462-16.568-7.302-24.837-5.462z" fill="#f9f7eb"/><path d="M78 91.698C64.469 77.305 59.026 74.076 53.163 97.16c8.299-5.462 16.568-7.302 24.837-5.462z" fill="#f9f8eb"/><path d="M57.342 106.876S65.972 89.043 78 105.85c0 0-9.141 18.437-20.657 1.026zm64.378-1.479s8.63-17.833 20.658-1.025c0 0-9.141 18.436-20.658 1.025z" fill="#fff"/><g fill="#171815"><use xlink:href="#B"/><use xlink:href="#B" x="-64.378" y="2.746"/></g><path d="M127.523 103.074c.512-.603 1.083-1.147 1.714-1.629.121-.091.211-.332.211-.483 0-.181-.09-.392-.211-.483-.12-.121-.3-.211-.481-.211-.06 0-.12.03-.18.03a.62.62 0 0 0-.301.181 11.02 11.02 0 0 0-1.714 1.629c-.12.151-.21.302-.21.483s.09.393.21.483a.71.71 0 0 0 .481.211c.151-.03.361-.09.481-.211zm1.684 4.677c-.03.091-.09.151-.09.241-.03.091-.03.181-.03.272 0 .121 0 .241.03.362 0 .03.03.06.03.091.03.09.06.181.12.241.091.151.211.272.361.362s.331.121.511.151c.091 0 .181 0 .241-.03l.241-.091a.89.89 0 0 0 .21-.151l.06-.06c.06-.06.12-.121.151-.211.03-.06.06-.151.09-.242a.84.84 0 0 0 0-.543l-.09-.241c-.091-.151-.151-.181-.301-.302-.09-.06-.181-.09-.271-.09-.09-.031-.18-.031-.27 0s-.181.06-.241.12c-.09.061-.15.121-.18.212-.03.06-.061.12-.061.181a.74.74 0 0 0 0 .362c.031.06.061.12.061.181.06.12.15.181.24.241-.06-.03-.09-.06-.15-.121l.03.031c-.03-.061-.06-.091-.12-.151l.03.03a.43.43 0 0 1-.06-.181c0 .03 0 .03.03.06 0-.06-.03-.12-.03-.181v.061c0-.061.03-.121.03-.182 0 .031 0 .061-.03.091a.43.43 0 0 0 .06-.181c0 .03-.03.06-.06.09.03-.06.06-.09.12-.15-.03.03-.03.06-.06.06.06-.03.09-.06.15-.121-.03.03-.03.03-.06.03.06-.03.12-.06.18-.06-.03 0-.06.03-.06.03.06 0 .12-.03.181-.03h-.061c.061 0 .121.03.181.03-.03 0-.06 0-.09-.03.06.03.12.06.18.06-.03 0-.06-.03-.06-.03.06.03.09.061.15.121-.03-.03-.06-.03-.06-.06.03.06.06.09.12.15-.03-.03-.03-.06-.06-.09a.43.43 0 0 1 .06.181c-.03-.03-.03-.09-.03-.121 0 .061.03.121.03.181v-.12c0 .06-.03.12-.03.181 0-.03.03-.091.03-.121a.43.43 0 0 0-.06.181s0-.03.03-.03a.49.49 0 0 0 .091-.272.42.42 0 0 0 0-.271c-.031-.091-.061-.181-.121-.242-.06-.09-.12-.151-.21-.181-.06-.03-.12-.06-.181-.06a.73.73 0 0 0-.36 0c-.061.03-.121.06-.181.06-.21.121-.301.181-.361.302zm5.623-3.923h-.06c-.09 0-.15-.03-.24-.03s-.151.03-.241.03h-.06c-.06.031-.15.061-.211.091-.03 0-.03.03-.06.03-.06.03-.12.091-.18.121l-.03.03c-.06.06-.12.151-.181.211-.06.091-.09.181-.12.272 0 .03-.03.06-.03.09 0 .091-.03.181-.03.272s.03.151.03.241v.061c.03.06.06.15.09.211s.09.121.121.181c.06.06.15.121.21.181l.03.03c.06.03.15.06.211.091a.83.83 0 0 0 .27.03c.09 0 .151-.03.241-.03h.06c.03 0 .03 0 .06-.031.06-.03.15-.06.21-.09.091-.03.151-.121.241-.181.06-.06.15-.151.18-.211.061-.091.091-.181.121-.272 0-.03 0-.03.03-.06 0-.061.03-.151.03-.211v-.031c0-.09-.03-.181-.03-.241 0-.03 0-.03-.03-.06a.6.6 0 0 0-.121-.242c-.06-.09-.12-.151-.21-.181-.09-.06-.18-.09-.271-.09-.09-.031-.18-.031-.27 0a.43.43 0 0 1-.181.06c-.12.06-.18.151-.24.241-.03.061-.06.121-.06.181-.03.121-.03.242 0 .363 0 .03 0 .03.03.06 0-.06-.03-.121-.03-.181v.09c0-.06.03-.12.03-.181 0 .03 0 .061-.03.091.03-.061.06-.121.06-.181 0 .03-.03.06-.06.09.03-.06.06-.09.12-.151l-.09.091c.06-.03.09-.06.15-.121-.03.03-.06.061-.12.061.06-.031.12-.061.18-.061-.03.03-.09.03-.12.03.06 0 .12-.03.18-.03h-.09c.06 0 .12.03.181.03-.031 0-.061 0-.091-.03.06.03.121.061.181.061-.03 0-.06-.031-.06-.031a.55.55 0 0 1 .15.121l-.06-.06c.03.06.06.09.12.151-.03-.031-.03-.031-.03-.061.03.061.06.121.06.181 0-.03-.03-.06-.03-.09 0 .06.03.121.03.181v-.091c0 .061-.03.121-.03.181 0-.03.03-.09.03-.12-.03.06-.06.12-.06.181.03-.03.03-.091.06-.121a.53.53 0 0 1-.12.151l.09-.091a.55.55 0 0 0-.15.121c.03-.03.06-.03.09-.06-.06.03-.12.06-.18.06.03 0 .06-.03.09-.03-.06 0-.121.03-.181.03h.091c-.061 0-.121-.03-.181-.03h.06a.42.42 0 0 0 .271 0c.09 0 .18-.03.27-.091.091-.03.151-.09.211-.181.06-.06.09-.151.12-.241 0-.06.03-.121.03-.181 0-.121-.03-.242-.09-.362-.03-.061-.06-.091-.12-.151 0 0-.12-.06-.241-.091zm-70.662.574l1.864-1.117c.301-.181.451-.633.241-.965s-.632-.453-.962-.242l-1.864 1.117c-.301.181-.451.633-.241.965.211.302.632.423.962.242zm-3.819-.936c-.331.906-.511 1.901-.511 2.867 0 .362.331.724.692.694.391-.03.692-.302.692-.694l.03-.664c0-.06 0-.151.03-.211.03-.121.03-.211.06-.332a9.2 9.2 0 0 1 .361-1.298c.12-.332-.15-.784-.481-.875-.391-.06-.722.151-.872.513zm5.593 6.548c.902 0 .902-1.418 0-1.418s-.902 1.418 0 1.418zm5.262-2.293c.902 0 .902-1.418 0-1.418s-.902 1.418 0 1.418zm4.029-1.901c.902 0 .902-1.418 0-1.418s-.902 1.418 0 1.418z" fill="#fff"/><path d="M159.006 19.4c-.09.121-.151.241-.241.362l-1.563 2.082-.391.453-.09.09c-.091.121-.211.211-.301.332-.451.453-.932.905-1.534 1.116-.361.121-.721.181-1.112.211-.331.03-.692 0-1.023 0-3.458-.181-6.254.332-9.652-.362 1.925-.754 3.518-1.931 4.962-3.349.631-.604 1.232-1.297 1.804-1.961l.361-.422.36-.483c.091-.121.211-.241.301-.392l1.263-1.72 5.563 3.651 1.293.392zm12.779 11.708c-1.353-.815-2.586-1.81-3.668-2.927a16.36 16.36 0 0 1-1.955-2.474l5.623 5.401z" fill="#333"/><path d="M160.209 95.44l-4.481-18.135c-.691-2.776-1.383-5.643-2.556-8.268-3.879-8.66-12.568-14.393-19.544-19.01l.3-.483c7.036 4.647 15.817 10.41 19.725 19.251 1.203 2.686 1.925 5.582 2.616 8.358l4.481 18.135-.541.151zM41.887 86.629c0-4.436 2.977-8.389 5.172-11.285l9.051-12.009c2.135-2.836 4.36-5.763 7.277-7.936.872-.664 1.864-1.267 2.796-1.871 3.097-1.992 6.315-4.043 6.766-7.483l.541.06c-.451 3.712-3.789 5.824-7.006 7.876-.932.604-1.894 1.207-2.766 1.841-2.857 2.112-5.052 5.009-7.156 7.815L47.51 75.645c-2.135 2.836-5.052 6.699-5.052 10.923l-.571.06z" fill="#2b2b2b"/><g opacity=".13"><path d="M76.346 97.069c-1.052 2.203-.932 4.466.361 6.548.541.875 1.203 1.66 1.864 2.414l.872 1.026c-.451-.573.24.392.361.573.421.664-.03-.362.12.332.06.302-.03-.452-.03-.573.06-.302.06-.302-.03.03.06-.12.09-.241.15-.332.15-.241.21-.362.03-.06.15-.211.391-.241.03-.03l-1.203.664c-2.045 1.026-3.999 2.323-4.51 4.737-.391 1.871.541 3.802 2.436 4.315 1.744.483 3.909-.604 4.3-2.444.18-.785-.511.845-.15.181-.12.211-.451.271-.03.06l.632-.362c.722-.392 1.473-.694 2.135-1.146 2.255-1.509 3.548-3.923 3.007-6.669-.391-1.931-1.654-3.47-2.887-4.949l-.752-.905c-.24-.272-.15-.241.03.03l-.301-.452c-.06-.091-.421-.755-.18-.272.21.422-.03-.03-.03-.151.03.332-.03.724-.15.966.812-1.72.451-3.802-1.263-4.798-1.564-.905-3.969-.453-4.811 1.267z" fill="#816c44"/></g><g opacity=".13"><path d="M118.864 95.41l-3.789 5.039c-1.383 1.84-2.706 3.56-2.827 5.974-.24 5.07 4.15 8.057 8.42 9.445 3.007.966 6.194-2.867 4.27-5.582-.782-1.087-1.594-1.962-2.586-2.867-.361-.332-.722-.815-1.113-1.116.12.09.03.271 0 .422l-7.427-.996c.06 3.531 2.165 5.824 4.39 8.298.722.815 1.383 1.932 2.195 2.927 1.022 1.268 2.255 2.052 3.759 2.656 1.894.754 4.149-.845 4.66-2.656.602-2.172-.751-3.892-2.646-4.677.421.181.361.242.091-.09-.451-.574 0 .09-.391-.513a24.72 24.72 0 0 0-1.985-2.686c-.631-.754-1.413-1.418-2.015-2.203-.15-.181-.27-.362-.42-.724-.031-.06-.091-.694-.091-.392-.03-1.871-1.413-3.5-3.277-3.742-1.774-.211-3.759.845-4.15 2.716-.481 2.263 0 4.375 1.383 6.216.872 1.147 2.436 2.263 3.098 3.168l4.269-5.582c-.962-.302-1.984-.664-2.586-1.328-.18-.211-.3-.332-.33-.754.03.604-.03.453.3-.06 1.594-2.505 3.579-4.798 5.353-7.182 1.232-1.629.27-4.255-1.353-5.19-1.955-1.026-3.97-.181-5.202 1.479z" fill="#816c44"/></g><g opacity=".13"><path d="M46.578 24.107c4.24 4.768 9.261 8.509 14.493 12.1 4.39 3.017 8.78 6.276 11.366 11.044l4.781-4.798-11.787-7.363c-2.466-1.539-5.022.543-5.262 3.048-.421 4.134-.481 8.298-.12 12.432.241 2.716 2.766 4.285 5.262 3.048 2.556-1.267 4.901-2.987 6.946-4.979 1.323-1.267 1.383-3.712 0-4.979l-3.368-3.108c-1.383-1.267-3.578-1.388-4.961 0-1.293 1.297-1.413 3.681 0 4.979l3.368 3.108V43.66c-1.654 1.599-3.488 2.836-5.533 3.892l5.262 3.048c-.361-4.164-.301-8.298.12-12.432l-5.262 3.048 11.787 7.363c3.067 1.931 6.405-1.81 4.781-4.798-2.917-5.371-7.668-9.233-12.569-12.673-2.496-1.75-5.082-3.379-7.427-5.28-2.496-2.022-4.811-4.224-6.946-6.638-1.263-1.418-3.668-1.297-4.961 0-1.353 1.358-1.233 3.5.03 4.918z" fill="#816c44"/></g><g opacity=".13"><path d="M54.125 108.294c3.067-2.474 6.074-5.371 9.442-7.423 1.534-.935 3.037-1.327 4.841-1.056 2.135.302 4.24.875 6.344 1.328 2.826.603 4.029-3.742 1.203-4.345-4.631-.996-9.321-2.625-13.802-.272-1.864.966-3.488 2.414-5.112 3.712l-6.014 4.858c-.932.754-.782 2.384 0 3.168.842.966 2.135.815 3.097.03z" fill="#816c44"/></g><path d="M102.777 167.165l-.271-.061c.361-1.78.782-5.099.451-6.94a9.11 9.11 0 0 0-.451-1.78l.271-.09c.21.603.36 1.206.451 1.81.33 1.901-.091 5.25-.451 7.061z" fill="#1f1c1f"/><g opacity=".35"><path d="M196.532 93.358c.331 4.406.361 8.871.09 13.428-3.307 53.288-49.043 93.812-102.145 90.493S.993 148.064 4.3 94.776a73.35 73.35 0 0 1 .391-4.556c3.578 47.374 41.495 86.058 90.087 89.105 51.569 3.169 96.191-34.942 101.754-85.967z" fill="#371a45"/></g><g fill="#f9f8eb"><path d="M183.843 46.225c-2.436-3.711-5.112-7.302-8.059-10.742l-.721-.815c-1.083-1.207-2.165-2.414-3.308-3.561-1.804-1.871-3.698-3.681-5.623-5.401-2.375-2.112-4.841-4.104-7.397-5.944-.361-.241-.691-.513-1.052-.754-1.804-1.297-3.669-2.504-5.563-3.651-.12-.06-.241-.151-.361-.211-13.531-8.177-28.896-13.035-45.134-14.061C86.81-.153 67.506 4.433 50.727 14.21c-5.683 3.289-11.096 7.212-16.147 11.678C14.644 43.54 2.767 67.921 1.113 94.565c-1.654 26.614 7.126 52.292 24.717 72.298a100.2 100.2 0 0 0 8.149 8.238c.661.603 1.323 1.177 2.015 1.78 2.075 1.78 4.18 3.44 6.375 5.039 15.065 10.893 32.896 17.351 51.899 18.527 2.105.121 4.18.212 6.254.212 21.44 0 41.466-6.91 57.883-18.739.692-.483 1.353-.996 2.015-1.478l3.488-2.746c1.564-1.298 3.067-2.656 4.571-4.044a99.93 99.93 0 0 0 15.665-18.798c8.961-13.881 14.584-30.205 15.666-47.857 1.323-21.756-4.269-42.878-15.966-60.772zM94.658 194.081c-14.523-.906-28.325-5.1-40.593-12.161-6.555-3.772-12.659-8.388-18.222-13.759-1.804-1.751-3.578-3.591-5.262-5.522-1.113-1.268-2.165-2.535-3.187-3.833-11.817-14.936-18.703-32.86-19.936-51.719-.271-4.013-.271-8.056 0-12.13.241-3.953.722-7.815 1.443-11.647 1.173-6.216 2.947-12.251 5.292-18.044 1.052-2.625 2.255-5.19 3.548-7.694 2.917-5.643 6.435-10.953 10.494-15.932.932-1.116 1.864-2.233 2.857-3.319 1.774-1.992 3.668-3.923 5.623-5.763a60.11 60.11 0 0 1 2.045-1.871 99.2 99.2 0 0 1 7.968-6.337c1.955-1.388 3.939-2.686 5.954-3.893A92.9 92.9 0 0 1 74.873 10.8a92.93 92.93 0 0 1 25.409-3.53c1.954 0 3.939.06 5.923.181 9.623.603 18.944 2.655 27.694 6.005 4.541 1.75 8.931 3.862 13.14 6.306.331.181.662.392.962.573 1.955 1.177 3.849 2.414 5.714 3.711a94.01 94.01 0 0 1 16.538 14.846c1.353 1.539 2.646 3.078 3.848 4.677l.902 1.207c3.368 4.496 6.315 9.294 8.781 14.242.902 1.78 1.714 3.591 2.495 5.431a104.52 104.52 0 0 1 2.707 7.242c.751 2.293 1.383 4.587 1.954 6.91.722 2.957 1.293 5.974 1.714 9.022a92.76 92.76 0 0 1 .902 12.945c0 1.961-.06 3.952-.18 5.944l-.301 3.651c-1.143 11.346-4.3 22.027-9.081 31.774-4.48 9.113-10.374 17.38-17.41 24.471-1.503 1.509-3.037 2.988-4.63 4.376a75.05 75.05 0 0 1-2.436 2.082c-.301.271-.632.513-.962.784l-1.383 1.087c-3.338 2.595-6.856 4.948-10.525 7.06-15.215 8.902-33.136 13.458-51.989 12.282z"/><path d="M72.106 33.914l-1.954.302s.03 0 .03.03l.421.332c.06.03.12.09.15.121l.03.03.571.483.511.453c.15.151.331.302.481.422l.481.453 1.443-.211-2.165-2.414zm0 0l-1.954.302s.03 0 .03.03l.421.332c.06.03.12.09.15.121l.03.03.571.483.511.453c.15.151.331.302.481.422l.481.453 1.443-.211-2.165-2.414zm0 0l-1.954.302s.03 0 .03.03l.421.332c.06.03.12.09.15.121l.03.03.571.483.511.453c.15.151.331.272.481.422l.481.453 1.443-.211-2.165-2.414zM197.374 98.85l-.992-7.513v-.03l-1.203-5.19c-1.413-5.13-3.428-9.927-6.074-14.363-1.534-2.595-3.248-5.069-5.202-7.423-3.308-4.013-7.187-7.725-11.637-11.074-.24-.181-.511-.362-.752-.573-10.674-7.815-24.536-13.488-40.803-16.837-8.329-1.72-17.29-2.806-26.792-3.259-11.336-.543-21.98-.091-31.783 1.297-.662.09-1.293.181-1.954.302-1.594.241-3.187.543-4.751.845-1.473.272-2.917.603-4.36.935-.09 0-.15.03-.241.06-9.832 2.323-18.583 5.733-26.07 10.169-1.985 1.177-3.849 2.414-5.653 3.712-6.014 4.375-10.975 9.505-14.884 15.329-3.277 4.888-5.803 10.259-7.607 16.143-.692 2.233-1.263 4.526-1.714 6.88a78.37 78.37 0 0 0-1.353 11.255c0 .181-.03.392-.03.574-.872 18.587 4.089 36.752 14.403 52.564.752 1.177 1.804 2.474 3.097 3.832a61.72 61.72 0 0 0 2.436 2.384 76.99 76.99 0 0 0 2.195 1.931c2.826 2.384 6.254 4.858 10.163 7.302 8.149 5.13 18.432 10.139 29.919 13.76 9.382 2.957 19.575 4.979 30.099 5.371 1.594.06 3.157.09 4.751.09 13.47 0 26.37-2.172 37.766-5.461 6.916-2.022 13.261-4.436 18.854-7.061.511-.241.992-.483 1.473-.724.451-.211.872-.423 1.293-.634 2.917-1.478 5.563-2.987 7.938-4.526l2.285-1.539c.872-.634 1.714-1.237 2.496-1.871 2.315-1.81 4.15-3.591 5.503-5.31a87.24 87.24 0 0 0 5.833-8.268c8.089-12.885 12.689-27.489 13.411-42.697.271-3.531.21-7.031-.06-10.38zm-169.95 59.956c-3.338-2.806-5.803-5.401-7.217-7.634-9.772-14.996-14.614-32.226-13.982-49.848 0-.362.03-.724.03-1.086.271-6.035 1.173-11.708 2.676-16.958 3.518-12.311 10.374-22.389 20.477-30.205 2.105-1.629 4.33-3.138 6.705-4.556 6.916-4.104 14.974-7.302 23.965-9.535l3.699-.845c1.654-.362 3.308-.664 5.022-.966 1.323-.241 2.676-.453 4.029-.634a23.74 23.74 0 0 0 1.443-.211c6.465-.845 13.29-1.267 20.447-1.267 2.947 0 5.984.06 9.051.211 8.69.422 16.899 1.358 24.566 2.836 16.659 3.199 30.761 8.841 41.526 16.717.601.422 1.172.875 1.774 1.328 3.097 2.414 5.893 5.009 8.389 7.785 1.383 1.539 2.676 3.138 3.849 4.798 4.089 5.673 7.036 11.979 8.84 18.889 1.293 4.949 2.015 10.229 2.135 15.811 0 .573.03 1.147.03 1.72a87.89 87.89 0 0 1-.09 3.953c-.632 13.247-4.3 26.01-10.705 37.537-2.315 4.134-4.961 8.087-7.968 11.859-1.804 2.293-5.052 5.039-9.472 7.936-2.465 1.599-5.322 3.259-8.509 4.858l-.181.09c-8.209 4.134-18.643 7.997-30.55 10.471-9.622 1.991-20.236 3.078-31.452 2.655-6.826-.271-13.471-1.207-19.876-2.655-5.382-1.207-10.554-2.776-15.455-4.587-14.042-5.129-25.769-12.22-33.196-18.467zM72.106 33.914c-.662.091-1.293.181-1.954.302 0 0 .03 0 .03.03l.421.332c.06.03.12.09.15.121l.03.03.571.483c.18.151.331.302.511.453.15.151.331.302.481.422.15.151.331.302.481.453a23.74 23.74 0 0 0 1.443-.211l-2.165-2.414zm0 0c-.662.091-1.293.181-1.954.302 0 0 .03 0 .03.03l.421.332c.06.03.12.09.15.121l.03.03.571.483c.18.151.331.302.511.453.15.151.331.302.481.422.15.151.331.302.481.453a23.74 23.74 0 0 0 1.443-.211l-2.165-2.414z"/></g><g opacity=".35"><path d="M181.273 61.701c11.156 11.738 17.35 27.459 16.418 47.525-.902 18.889-7.818 36.149-18.974 50.18-8.359 10.501-41.465 28.032-81.276 26.524-14.042-.544-27.483-3.953-39.15-8.63 48.982.814 89.305-20.7 99.679-33.736 14.132-17.803 22.942-39.709 24.055-63.668.331-6.427.06-12.492-.752-18.195z" fill="#f9f8eb"/></g><path d="M188.143 66.985l-.241-.241-.18-.302c-15.095-23.506-45.735-38.02-84.043-39.83-38.549-1.841-70.392 10.169-87.381 32.89l-.18.211c-1.022 1.086-2.736 1.177-3.849.151-1.052-.996-1.143-2.595-.271-3.711C30.1 32.013 63.627 19.249 103.919 21.15c40.082 1.901 72.316 17.32 88.343 42.335l-2.255 1.478-1.864 2.022z" fill="#f9f8eb"/><defs ><path id="B" d="M132.064 110.346c3.62 0 6.555-2.945 6.555-6.578s-2.935-6.578-6.555-6.578-6.555 2.945-6.555 6.578 2.935 6.578 6.555 6.578z"/></defs></svg>