<svg width="17" height="17" viewBox="0 0 17 17" fill="none" xmlns="http://www.w3.org/2000/svg">
<g clip-path="url(#clip0_2714_44362)">
<path d="M8.5 17C13.1944 17 17 13.1944 17 8.5C17 3.80558 13.1944 0 8.5 0C3.80558 0 0 3.80558 0 8.5C0 13.1944 3.80558 17 8.5 17Z" fill="url(#paint0_linear_2714_44362)"/>
<path d="M9.49364 4.89844H6.0831C6.01326 4.89844 5.94605 4.92611 5.89597 4.97619C5.84589 5.02627 5.81953 5.09348 5.81953 5.16332L5.82744 6.64588C5.82876 6.79084 5.94605 6.90813 6.09101 6.90813H9.76511C9.91008 6.90813 10.0287 6.78952 10.0287 6.64456C10.0287 6.4996 9.91008 6.381 9.76511 6.381H6.35326L6.34798 5.42557H9.49364C10.8444 5.42557 11.9435 6.52464 11.9435 7.87541C11.9435 8.59495 11.7023 9.23146 11.2622 9.6703C10.88 10.0525 10.37 10.262 9.82178 10.262C9.82046 10.262 9.82046 10.262 9.81915 10.262L8.01372 10.295C8.0124 10.295 8.00977 10.295 8.00845 10.295C8.00581 10.295 8.0045 10.295 8.00186 10.295C7.8569 10.295 7.73829 10.4136 7.73829 10.5585V11.8329H6.58124L6.55225 10.2291V9.44363H9.71504C9.86 9.44363 9.9786 9.32503 9.9786 9.18007C9.9786 9.0351 9.86 8.9165 9.71504 8.9165H6.28868C6.14372 8.9165 6.02512 9.0351 6.02512 9.18007V10.2343V10.5875C6.02512 10.6099 6.02775 10.631 6.03302 10.6508L6.05938 12.1004C6.06201 12.244 6.1793 12.3587 6.32294 12.3587H8.00186C8.14682 12.3587 8.26543 12.2401 8.26543 12.0951V10.8168L9.8231 10.7878C9.82442 10.7878 9.82574 10.7878 9.82705 10.7878C10.511 10.7878 11.1528 10.5229 11.6351 10.0419C12.1741 9.50425 12.4706 8.73332 12.4706 7.8741C12.4706 6.2334 11.1357 4.89844 9.49364 4.89844Z" fill="white"/>
<path d="M10.8391 7.89259C10.8391 7.74763 10.7205 7.62903 10.5756 7.62903H5.13558C4.99062 7.62903 4.87202 7.74763 4.87202 7.89259C4.87202 8.03756 4.99062 8.15616 5.13558 8.15616H10.5756C10.7219 8.15616 10.8391 8.03756 10.8391 7.89259Z" fill="white"/>
</g>
<defs>
<linearGradient id="paint0_linear_2714_44362" x1="14.25" y1="14.5" x2="3.5" y2="2" gradientUnits="userSpaceOnUse">
<stop stop-color="#F03F77"/>
<stop offset="1" stop-color="#8D29C1"/>
</linearGradient>
<clipPath id="clip0_2714_44362">
<rect width="17" height="17" fill="white"/>
</clipPath>
</defs>
</svg>
