<svg xmlns="http://www.w3.org/2000/svg" viewBox="0 0 30480 30480" xmlns:v="https://vecta.io/nano"><style><![CDATA[.B{fill:#3c9b9d}.C{fill:#396061}.D{fill:#41fbff}]]></style><path d="M0 0v30480h30480V0H0" fill="#fff"/><path d="M10 20v30450h30450V20H10" fill="#010101"/><path d="M3490 27000h6720c35.4 0 103 12.8 132.7-10.3 43.4-33.7 52.6-158.2 66.1-209.7l154.9-580 577.5-2160 183-690c17.7-63.7 24.1-202.1 106-209.4 203-18.3 415.8-.6 619.8-.6h6770c38.2 0 103.9-12.3 134.4 16 47.1 43.8 58.2 163.8 75.6 224l167.1 570 618.7 2120 201.4 690c15.6 52.1 34 209.3 85.8 234 43.3 20.5 119.9 6 167 6h6850l-2026.6-5880-3570-10360-1736.7-5040-596.2-1730c-56.7-155.29-108.2-313.15-160.5-470-24.2-72.69-42.8-173.2-85.6-236.82-21.7-32.32-70.7-23.18-104.4-23.18h-7140c-29.8 0-76.6-8.42-99.1 16.04-39.7 43.14-55.8 138.8-74.2 193.96l-143.4 420-493.8 1450c-680.5 1861.98-1229.57 3773.16-1923.74 5630-223.09 596.7-410.26 1208.1-619.2 1810l-169.64 490c-17.98 50.5-69.56 145.5-57.63 199 11.01 49.3 111.41 91.5 150.71 117.7 136.87 91.2 270.31 186.3 400 287.5 430.4 335.9 824.83 733.3 1145.75 1175.8 1310.05 1806.3 1575.45 4185.2 641.15 6220-761.35 1658.1-2305.26 2958.2-4086.9 3381.2-494.38 117.3-992.39 178.8-1500 178.8-142.48 0-288.67 4.3-430-14.2-43.8-5.8-156.28-32.8-192.98-5.5-36.06 26.8-46.36 109.1-60.46 149.7l-140.8 410c-200.45 536.2-378.63 1085.6-555.76 1630" fill="#fff"/><path d="M15210 9530c-49.2 334.59-185.1 674-275.8 1000l-600 2150-1000 3580-504.2 1800h4770l-535.8-1920-1020-3650-570-2040-165.4-590-98.8-330" fill="#010101"/><path d="M21140 9650l10 10-10-10m-5966.7 16.67l3.4 6.66-3.4-6.66m76.7-6.67l10 10-10-10zm13.3 36.67l3.4 6.66-3.4-6.66M15160 9700l10 10-10-10zm153.3 176.67l3.4 6.66-3.4-6.66M9330 9880l10 10-10-10m5780 0l10 10-10-10m6110 0l10 10-10-10zm-11900 30l10 10-10-10m5783.3 6.67l3.4 6.66-3.4-6.66m216.7-6.67l10 10-10-10m5910 0l10 10-10-10m-5516.7 1396.7l3.4 6.6-3.4-6.6M8840 11310l10 10-10-10m5870 0l10 10-10-10zm-36.7 146.7l3.4 6.6-3.4-6.6m1076.7-6.7l10 10-10-10m6010 0l10 10-10-10m-12970 10l10 10-10-10zm7043.3 276.7l3.4 6.6-3.4-6.6m-1243.3 3.3l10 10-10-10m7270 0l10 10-10-10m-13170 10l10 10-10-10zm5863.3 136.7l3.4 6.6-3.4-6.6m1316.7-6.7l10 10-10-10m103.3 356.7l3.4 6.6-3.4-6.6m-1523.3 3.3l10 10-10-10zm-16.7 76.7l3.4 6.6-3.4-6.6m1556.7-6.7l10 10-10-10m6070 10l10 10-10-10zm80 230l10 10-10-10m-7776.7 16.7l3.4 6.6-3.4-6.6m1696.7-6.7l10 10-10-10zm33.3 106.7l3.4 6.6-3.4-6.6m-1763.3 3.3l10 10-10-10m7850 0l10 10-10-10zm-7866.7 76.7l3.4 6.6-3.4-6.6m1796.7-6.7l10 10-10-10zm53.3 176.7l3.4 6.6-3.4-6.6M8290 12920l10 10-10-10m5970 0l10 10-10-10m8010 10l10 10-10-10zm-8026.7 66.7l3.4 6.6-3.4-6.6m1936.7-6.7l10 10-10-10m6110 0l10 10-10-10m-14030 20l10 10-10-10zm7973.3 156.7l3.4 6.6-3.4-6.6m6116.7-6.7l10 10-10-10m-8160 10l10 10-10-10m-6070 250l10 10-10-10m6003.3 6.7l3.4 6.6-3.4-6.6m2176.7-6.7l10 10-10-10zm53.3 176.7l3.4 6.6-3.4-6.6M8290 13600l10 10-10-10m5780 0l10 10-10-10m8430 0l10 10-10-10zm-8446.7 76.7l3.4 6.6-3.4-6.6m2316.7-6.7l10 10-10-10zm53.3 176.7l3.4 6.6-3.4-6.6M8640 13850l10 10-10-10m5363.3 6.7l3.4 6.6-3.4-6.6M8650 13860l10 10-10-10m13940 0l10 10-10-10m-13930 10l10 10-10-10zm14010 220l10 10-10-10m-13730 10l10 10-10-10m4993.3 6.7l3.4 6.6-3.4-6.6m2556.7-6.7l10 10-10-10m-7540 10l10 10-10-10m10 10l10 10-10-10m-4060 160l10 10-10-10m20 0v10h50l-50-10" class="C"/><path d="M5040 14280v10h170l-170-10" class="B"/><path d="M5290 14280v10h70l-70-10zm8590 0 10 10-10-10m-9110 10 10 10-10-10m20 0v10h30l-30-10" class="C"/><path d="M4840 14290v10h30l-30-10" class="B"/><path d="M3420 14640v10c376.3 157.5 735.85 412.8 1090 615.8l1900 1082.7c343.91 196.3 683.85 418.1 1040 591.1 173.24 84.1 438.64-56 610-106.7 93.23-27.5 178.62-54.2 270-3.8 237.93 131.1 153.41 498.6 264.03 710.9 49.06 94.2 147.84 137.1 235.97 187.2 186.85 106.2 393.98 272.2 600 332.8-20.05-467.1-210.94-966.8-417.53-1380-851.01-1702-2773.24-2661.4-4642.47-2324.2-321.77 58-653.1 144.8-950 284.2" class="D"/><path d="M5476.67 14293.3l6.66 3.4-6.66-3.4m23.33-3.3l10 10-10-10m20 0l10 10-10-10zm-860 10l10 10-10-10m20 0v10h30l-30-10" class="C"/><path d="M4710 14300v10h30l-30-10m40 0 10 10-10-10m780 0v10h50l-50-10" class="B"/><path d="M5586.67 14303.3l6.66 3.4-6.66-3.4m23.33-3.3l10 10-10-10zm-1040 10l10 10-10-10m20 0v10h30l-30-10" class="C"/><path d="M4620 14310v10h30l-30-10m1010 0v10h40l-40-10" class="B"/><path d="M5676.67 14313.3l6.66 3.4-6.66-3.4m23.33-3.3l10 10-10-10zm10850 0l10 10-10-10m-12050 10v10h30l-30-10" class="C"/><path d="M4530 14320v10h30l-30-10m40 0 10 10-10-10m1156.67 3.3 6.66 3.4-6.66-3.4" class="B"/><path d="M5746.67 14323.3l6.66 3.4-6.66-3.4m23.33-3.3l10 10-10-10zm8100 0l10 10-10-10m8880 0l10 10-10-10m-18310 10v10h30l-30-10" class="C"/><path d="m4476.67 14333.3 6.66 3.4-6.66-3.4M5770 14330l10 10-10-10m26.67 3.3 6.66 3.4-6.66-3.4" class="B"/><path d="M5860 14340v10h30l-30-10zm-1530 10v10h30l-30-10" class="C"/><path d="M4290 14360v10h30l-30-10m1666.67 3.3 6.66 3.4-6.66-3.4" class="B"/><path d="M5970 14360v10h30l-30-10" class="C"/><path d="M4256.67 14373.3l6.66 3.4-6.66-3.4M6000 14370v10h30l-30-10m-1800 10v10h30l-30-10m1866.67 3.3l6.66 3.4-6.66-3.4zm-1900 10l6.66 3.4-6.66-3.4M6090 14390v10h30l-30-10m-2060 30v10h30l-30-10m2196.67 3.3l6.66 3.4-6.66-3.4zM4000 14430l10 10-10-10m2266.67 3.3l6.66 3.4-6.66-3.4M9290 14430l10 10-10-10zm-5353.33 23.3l6.66 3.4-6.66-3.4m2400 0l6.66 3.4-6.66-3.4M9310 14450l10 10-10-10m4520 0l10 10-10-10zm-9963.33 23.3l6.66 3.4-6.66-3.4M6400 14470l10 10-10-10" class="B"/><path d="m6446.67 14483.3 6.66 3.4-6.66-3.4M9330 14480l10 10-10-10" class="C"/><path d="M3790 14490v10h30l-30-10" class="B"/><path d="M6536.67 14513.3l6.66 3.4-6.66-3.4M9360 14510l10 10-10-10m-5660 10l10 10-10-10m2860 0l10 10-10-10m2810 0l10 10-10-10m7243.3 6.7l3.4 6.6-3.4-6.6M3670 14530l10 10-10-10" class="C"/><path d="M3656.67 14543.3l6.66 3.4-6.66-3.4M6610 14540l10 10-10-10m-3083.33 53.3l6.66 3.4-6.66-3.4M6740 14590l10 10-10-10m-3240 10l10 10-10-10m3266.67 3.3l6.66 3.4-6.66-3.4M9450 14600l10 10-10-10m4340 0l10 10-10-10m2850 20l10 10-10-10m6210 0l10 10-10-10m-19423.33 13.3l6.66 3.4-6.66-3.4M6840 14630l10 10-10-10" class="B"/><path d="M7140 14770l10 10-10-10m2450 0l10 10-10-10m7093.3 6.7l3.4 6.6-3.4-6.6M3650 14780l10 10-10-10m3510 0l10 10-10-10m2440 0l10 10-10-10m4143.3 6.7l3.4 6.6-3.4-6.6M3670 14790l10 10-10-10m10023.3 176.7l3.4 6.6-3.4-6.6m9276.7-6.7l10 10-10-10m-18980 10l10 10-10-10m3490 0l10 10-10-10m2270 0l10 10-10-10m-5750 10l10 10-10-10" class="C"/><path d="M1570 16170l2150 1224.2c422.83 242.4 845.55 533 1290 732.7 282.02 126.6 619.03-276.2 890-107 259.17 161.9 92.98 591 310.93 783.9 104.1 92.2 248.82 151.5 369.07 220.4l720 410 1190 678.6c190.06 108.1 379.29 240.7 580 327.2 141.2-344.2 241.2-679.6 330-1040-506.93-310.3-1034.36-590.2-1550-885.8-206.68-118.5-470.24-219.8-649.85-376.3-140.51-122.5-147.76-356-182.15-527.9-20.68-103.4-38.87-204.3-138.01-261.2-108.53-62.3-211.4-20.2-320 17.8-167.46 58.4-349.91 148-530 97.5-213.8-60.1-427.9-229.8-620-339.9l-1250-712.7-1350-768.7-360-205.6c-40.23-22.9-102.31-76.3-150.04-75.1-69.83 1.8-152.17 118.5-201.84 163.1-185.72 166.6-427.28 414-528.16 644.8" class="D"/><path d="M8100 15450l10 10-10-10m8773.3 6.7l3.4 6.6-3.4-6.6M2150 15460l10 10-10-10m8080 240l10 10-10-10m6713.3 6.7l3.4 6.6-3.4-6.6M1910 15710l10 10-10-10m-340 430l-10 30h10v-30m2120 0l10 10-10-10m2350 0l10 10-10-10m7273.3 186.7l3.4 6.6-3.4-6.6M1850 16330l10 10-10-10m8710 50l10 10-10-10m6573.3 6.7l3.4 6.6-3.4-6.6m6326.7-6.7l10 10-10-10m-21500 10l10 10-10-10m2170 0l10 10-10-10m2350 0l10 10-10-10m6783.3 116.7l3.4 6.6-3.4-6.6m10236.7-6.7l10 10-10-10m-21330 10l10 10-10-10m2170 0l10 10-10-10m2350 0l10 10-10-10" class="C"/><path d="m7210 16800 10 10-10-10m930 0v10h30l-30-10" class="B"/><path d="M8170 16800v10h30l-30-10m40 0l10 10-10-10m20 0l10 10-10-10m26.67 3.3l6.66 3.4-6.66-3.4zm8996.63 13.4l3.4 6.6-3.4-6.6M2710 16820l10 10-10-10m5256.67 43.3l6.66 3.4-6.66-3.4m413.33-3.3l10 10-10-10m4780 0l10 10-10-10m-10360 10l10 10-10-10m2170 0l10 10-10-10m2350 0l10 10-10-10m576.67 13.3l6.66 3.4-6.66-3.4m503.33-3.3l10 10-10-10m2343.3 6.7l3.4 6.6-3.4-6.6M7820 16900v10h30l-30-10" class="C"/><path d="m7400 16910 10 10-10-10m370 0v10h30l-30-10" class="B"/><path d="m7766.67 16923.3 6.66 3.4-6.66-3.4M8430 16920l10 10-10-10" class="C"/><path d="M7456.67 16943.3l6.66 3.4-6.66-3.4m223.33-3.3l10 10-10-10m-170 20v10h30l-30-10m96.67 3.3l6.66 3.4-6.66-3.4M3070 17020l10 10-10-10m2160 0l10 10-10-10m3243.33 6.7l3.34 6.6-3.34-6.6m686.67-6.7l10 10-10-10" class="B"/><path d="M10793.3 17056.7l3.4 6.6-3.4-6.6m12896.7-6.7l10 10-10-10m-14510 10l10 10-10-10m8143.3 6.7l3.4 6.6-3.4-6.6M3150 17070l10 10-10-10m2170 0l10 10-10-10" class="C"/><path d="m8493.33 17126.7 3.34 6.6-3.34-6.6M9200 17120l10 10-10-10m1610 0 10 10-10-10m-7550 10 10 10-10-10m2160 0 10 10-10-10" class="B"/><path d="m13073.3 17186.7 3.4 6.6-3.4-6.6M3360 17190l10 10-10-10m2170 0 10 10-10-10" class="C"/><path d="m3400 17210 10 10-10-10m2160 0 10 10-10-10m2953.33 6.7 3.34 6.6-3.34-6.6M9230 17210l10 10-10-10" class="B"/><path d="M1030 17220c-63.64 277.6-164.08 543.5-190.75 830-6.51 69.9-48.4 194-22.27 260.7 16.17 41.2 77.28 63 113.02 83.5l320 182.7c322.66 177.3 637.34 368.9 960 546.2 118.82 65.2 255.09 181.2 390 205.2 169.49 30 388.18-83.3 550-129.7 93.92-26.9 178.13-55.5 270-3.3 273.28 155.3 101.86 594.4 320.93 790.1 188.52 168.3 469.7 277.9 689.07 403.1l1350 769.2c437.82 238.1 867.17 493.7 1300 740.8l360 205.7c41 23.5 101.08 74.7 150 74.3 71.81-.6 185.93-117.2 240-161.1 156.68-127.4 306.72-260.7 444.24-408.6 54.69-58.8 121.93-114.9 155.76-188.8-248.58-107.1-485.06-271.1-720-405.8l-1350-770-1090-620c-165.78-95-362.19-177.5-509.96-298.9-147.45-121.1-152.62-360.5-190.04-535.3-20.19-94.3-32.09-193-120.04-250.3-133.34-86.9-287.56-7.6-419.96 39.8-200.33 71.7-372.76 122.1-570 13.2l-1680-956.9-490-280c-80.86-46.4-168.68-114.9-260-135.8" class="D"/><path d="M10843.3 17236.7l3.4 6.6-3.4-6.6m6526.7-6.7l10 10-10-10m6380 0l10 10-10-10m-22730 10l10 10-10-10m70 0l10 10-10-10m22680 50l10 10-10-10m-22766.67 16.7l3.34 6.6-3.34-6.6m196.67-6.7l10 10-10-10m2360 0l10 10-10-10m2160 0l10 10-10-10m3540 0l10 10-10-10m-8050 10l10 10-10-10zm5506.67 3.3l6.66 3.4-6.66-3.4m23.33-3.3l10 10-10-10m20 0l10 10-10-10m26.67 3.3l6.66 3.4-6.66-3.4" class="B"/><path d="M17393.3 17316.7l3.4 6.6-3.4-6.6m6386.7-6.7l10 10-10-10m-22790 10l10 10-10-10zm5850 0l10 10-10-10m1693.33 6.7l3.34 6.6-3.34-6.6m736.67-6.7l10 10-10-10" class="C"/><path d="m6646.67 17333.3 6.66 3.4-6.66-3.4M6850 17330l10 10-10-10" class="B"/><path d="M10863.3 17336.7l3.4 6.6-3.4-6.6m2166.7-6.7l10 10-10-10m-6110 40l10 10-10-10m1623.33 6.7l3.34 6.6-3.34-6.6m2329.97 0l3.4 6.6-3.4-6.6m12926.7-6.7l10 10-10-10m-16840 50l10 10-10-10m1593.33 6.7l3.34 6.6-3.34-6.6m746.67-6.7l10 10-10-10m1583.3 6.7l3.4 6.6-3.4-6.6m6536.7-6.7l10 10-10-10m-15990 10l10 10-10-10m11573.3 6.7l3.4 6.6-3.4-6.6m10816.7-6.7l10 10-10-10m-17833.33 13.3l6.66 3.4-6.66-3.4m323.33-3.3l10 10-10-10" class="C"/><path d="m6326.67 17443.3 6.66 3.4-6.66-3.4M6970 17440l10 10-10-10m-5510 10 10 10-10-10" class="B"/><path d="M6016.67 17453.3l6.66 3.4-6.66-3.4m263.33-3.3l10 10-10-10zm-240 10v10h30l-30-10m206.67 3.3l6.66 3.4-6.66-3.4zm-120 10l6.66 3.4-6.66-3.4m23.33-3.3v10h30l-30-10" class="C"/><path d="M6200 17470v10h30l-30-10" class="B"/><path d="M8560 17470l10 10-10-10m2333.3 6.7l3.4 6.6-3.4-6.6m2096.7-6.7l10 10-10-10" class="C"/><path d="M9320 17500l10 10-10-10m1583.3 6.7l3.4 6.6-3.4-6.6m2076.7-6.7l10 10-10-10m-12040 10l10 10-10-10" class="B"/><path d="m1680 17570 10 10-10-10m2350 0 10 10-10-10m2983.33 6.7 3.34 6.6-3.34-6.6M8610 17570l10 10-10-10m730 0 10 10-10-10m1573.3 6.7 3.4 6.6-3.4-6.6" class="C"/><path d="M923.33 17586.7l3.33 6.6-3.33-6.6m766.67-6.7l20 20-20-20m22190 30l10 10-10-10m-22966.67 16.7l3.33 6.6-3.33-6.6m846.67-6.7l20 20-20-20" class="B"/><path d="M9363.33 17656.7l3.34 6.6-3.34-6.6m3576.67-6.7l10 10-10-10m-2010 30v30h10l-10-30" class="C"/><path d="m17500 17700 10 10-10-10m-16606.67 16.7 3.33 6.6-3.33-6.6M1920 17710l10 10-10-10m2360 0 10 10-10-10m4520 0 10 10-10-10m573.33 6.7 3.34 6.6-3.34-6.6M12920 17710l10 10-10-10" class="B"/><path d="M10940 17740v30h10l-10-30m6573.3 6.7 3.4 6.6-3.4-6.6" class="C"/><path d="M12910 17750l10 10-10-10m11020 0l10 10-10-10m-23046.67 16.7l3.33 6.6-3.33-6.6M2000 17760l10 10-10-10m6960 40l10 10-10-10m430 0v30h10l-10-30m-8520 10l10 10-10-10m1220 0l10 10-10-10m-1230 50v30h10l-10-30m1320 0l10 10-10-10" class="B"/><path d="M7073.33 17866.7l3.34 6.6-3.34-6.6M9060 17860l10 10-10-10zm3823.3 6.7l3.4 6.6-3.4-6.6m11086.7-6.7l10 10-10-10m-13010 20v30h10l-10-30m-1546.67 26.7l3.34 6.6-3.34-6.6m3456.67-6.7l10 10-10-10" class="C"/><path d="m4630 17910 10 10-10-10m4520 0 10 10-10-10m8410 0 10 10-10-10m-16710 10v30h10l-10-30" class="B"/><path d="M24000 17950l10 10-10-10m-23156.67 16.7l3.33 6.6-3.33-6.6M2360 17960l10 10-10-10zm8610 0v30h10l-10-30m-1546.67 16.7l3.34 6.6-3.34-6.6m3426.67-6.7l10 10-10-10" class="C"/><path d="m843.33 17986.7 3.33 6.6-3.33-6.6M2390 17980l10 10-10-10" class="B"/><path d="M5750 17980v10h40l-40-10m-53.33 13.3l6.66 3.4-6.66-3.4m143.33-3.3l10 10-10-10zm11743.3 6.7l3.4 6.6-3.4-6.6M2430 18000l10 10-10-10m3190 10v10h30l-30-10m260 0l10 10-10-10" class="C"/><path d="m9350 18020 10 10-10-10m1630 0v30h10l-10-30m6610 0 10 10-10-10" class="B"/><path d="M830 18030v30h10l-10-30zm8603.33 16.7l3.34 6.6-3.34-6.6m3396.67-6.7l10 10-10-10m-1850 10v30h10l-10-30" class="C"/><path d="M830 18060v30h10l-10-30m1700 0 10 10-10-10" class="B"/><path d="m5466.67 18063.3 6.66 3.4-6.66-3.4M5950 18060l10 10-10-10m1180 0 10 10-10-10m2280 0 10 10-10-10" class="C"/><path d="m9426.67 18063.3 6.66 3.4-6.66-3.4M12830 18060v10h4770c-109.8-46.1-300.6-10-420-10h-4350m-10280 10 20 20-20-20zm2360 0 10 10-10-10m490 0v10h30l-30-10" class="B"/><path d="M5396.67 18083.3l6.66 3.4-6.66-3.4m573.33-3.3l10 10-10-10m-643.33 23.3l6.66 3.4-6.66-3.4M7160 18100l10 10-10-10" class="C"/><path d="m4980 18110 10 10-10-10m290 0v10h30l-30-10" class="B"/><path d="m5990 18110 10 10-10-10m1180 0 10 10-10-10m-6346.67 16.7 3.33 6.6-3.33-6.6M2640 18120l10 10-10-10" class="C"/><path d="M10990 18120v30h10l-10-30m-8340 10l10 10-10-10m4540 0l10 10-10-10m16870 0l10 10-10-10m-23236.67 16.7l3.33 6.6-3.33-6.6M2670 18140l10 10-10-10" class="B"/><path d="m2700 18150 10 10-10-10m2370 0v10h40l-40-10zm50 0v10h30l-30-10m40 0 10 10-10-10zm2060 0 10 10-10-10m3770 0v40h10l-10-40m-8280 10 10 10-10-10m3300 0 10 10-10-10" class="C"/><path d="M810 18230v40h10l-10-40m2020 0 10 10-10-10zm4520 0 10 10-10-10m-4500 10 10 10-10-10m3180 0 10 10-10-10m1340 0 10 10-10-10m3630 0v30h10l-10-30" class="B"/><path d="M2870 18250l10 10-10-10m3163.33 6.7l3.34 6.6-3.34-6.6M7390 18250l10 10-10-10m3610 20v50h10l-10-50m13110 0l10 10-10-10" class="C"/><path d="M810 18280l10 10-10-10m2110 0l10 10-10-10m3123.33 6.7l3.34 6.6-3.34-6.6M7440 18280l10 10-10-10m-4510 10l10 10-10-10m4720 110l10 10-10-10m3360 0v50h10l-10-50m-10050 10l10 10-10-10m2180 0l10 10-10-10" class="B"/><path d="M11010 18450v110h10l-10-110m-6663.33 43.3l6.66 3.4-6.66-3.4M6080 18490l10 10-10-10zm-1693.33 13.3l6.66 3.4-6.66-3.4M7830 18500l10 10-10-10m16360 0l10 10-10-10m-23060 10l10 10-10-10" class="C"/><path d="M6103.33 18576.7l3.34 6.6-3.34-6.6M7950 18570l10 10-10-10m-6690 10l10 10-10-10m2180 0l10 10-10-10m506.67 23.3l6.66 3.4-6.66-3.4m563.33-3.3l10 10-10-10m3490 0l10 10-10-10" class="B"/><path d="M1310 18610l10 10-10-10m2196.67 3.3l6.66 3.4-6.66-3.4m403.33-3.3l10 10-10-10m-330 30v10h30l-30-10m220 0v10h30l-30-10" class="C"/><path d="M3610 18650v10h30l-30-10" class="B"/><path d="M3646.67 18653.3l6.66 3.4-6.66-3.4m23.33-3.3l10 10-10-10m70 0l10 10-10-10m26.67 3.3l6.66 3.4-6.66-3.4" class="C"/><path d="m1490 18710 10 10-10-10m3063.33 6.7 3.34 6.6-3.34-6.6M6140 18710l10 10-10-10" class="B"/><path d="m4563.33 18746.7 3.34 6.6-3.34-6.6M8250 18740l10 10-10-10" class="C"/><path d="m1650 18800 10 10-10-10m2923.33 6.7 3.34 6.6-3.34-6.6M6210 18800l10 10-10-10m2140 0 10 10-10-10" class="B"/><path d="M11010 18840v110h10l-10-110m-9280 10 10 10-10-10" class="C"/><path d="M11010 18950v50h10l-10-50" class="B"/><path d="M4630 19080l10 10-10-10m2050 0l10 10-10-10m2170 0l10 10-10-10m2150 0v50h10l-10-50m13390 0l10 10-10-10m-22240 10l10 10-10-10m2493.33 36.7l3.34 6.6-3.34-6.6M6750 19120l10 10-10-10m2170 0l10 10-10-10m-6700 10l10 10-10-10" class="C"/><path d="M2230 19130l10 10-10-10m4540 0l10 10-10-10m2160 0l10 10-10-10m2070 0v30h10l-10-30m-7700 30v10h40l-40-10" class="B"/><path d="M3230 19170v10h30l-30-10m126.67 3.3l6.66 3.4-6.66-3.4m-180 20l6.66 3.4-6.66-3.4m233.33-3.3l10 10-10-10m-273.33 13.3l6.66 3.4-6.66-3.4m293.33-3.3l10 10-10-10m7560 10v40h10l-10-40m-8610 10l10 10-10-10m650 10v10h30l-30-10m440 0l10 10-10-10m3470 0l10 10-10-10m2170 0l10 10-10-10zm-6103.33 13.3l6.66 3.4-6.66-3.4m473.33-3.3l10 10-10-10" class="C"/><path d="m6980 19250 10 10-10-10m2160 0 10 10-10-10m1850 0v30h10l-10-30" class="B"/><path d="M2936.67 19263.3l6.66 3.4-6.66-3.4m563.33-3.3l10 10-10-10m-693.33 43.3l6.66 3.4-6.66-3.4M4730 19300l10 10-10-10m2370 20l10 10-10-10m2170 0l10 10-10-10m1710 0v30h10l-10-30" class="C"/><path d="M2610 19330v10h40l-40-10m50 0v10h30l-30-10m8320 20v30h10l-10-30m13500 0l10 10-10-10m-20926.67 16.7l3.34 6.6-3.34-6.6M4810 19360l10 10-10-10m-1246.67 56.7l3.34 6.6-3.34-6.6M4900 19410l10 10-10-10" class="B"/><path d="M10970 19410v30h10l-10-30m-1576.67 26.7l3.34 6.6-3.34-6.6M24510 19430l10 10-10-10" class="C"/><path d="M10973.3 19446.7l3.4 6.6-3.4-6.6M4970 19450l10 10-10-10m-1396.67 16.7l3.34 6.6-3.34-6.6M4990 19460l20 20-20-20" class="B"/><path d="m5050 19490 10 10-10-10m2350 0 10 10-10-10m3560 0v30h10l-10-30m13570 0 10 10-10-10" class="C"/><path d="M1720 19520v10h30l-30-10" class="B"/><path d="M920 19630c212.94 756 547.7 1423.9 1090.93 2000.1C3104.8 22790.5 4892.66 23253.6 6410 22760c-104.63-98-265.66-158.9-390-230l-850-484.2-2870-1635.9c-208.35-124.2-216.34-323.4-262.11-539.9-23.96-113.4-33.29-251.3-147.9-311.8-184.13-97-420.06 63.3-599.99 112.6-139.41 38.2-238.54-2.9-370-40.8" class="D"/><path d="M1780 19520v10h40l-40-10" class="B"/><path d="m1826.67 19523.3 6.66 3.4-6.66-3.4M3580 19520l10 10-10-10" class="C"/><path d="m10963.3 19526.7 3.4 6.6-3.4-6.6M24540 19520l10 10-10-10" class="B"/><path d="m5120 19530 10 10-10-10m2350 0 10 10-10-10m1903.33 6.7 3.34 6.6-3.34-6.6M1640 19540l10 10-10-10" class="C"/><path d="m1656.67 19543.3 6.66 3.4-6.66-3.4M1860 19540l10 10-10-10" class="B"/><path d="M5190 19570l10 10-10-10m2350 0l10 10-10-10m3413.3 6.7l3.4 6.6-3.4-6.6M1520 19580l10 10-10-10m9420 50v30h10l-10-30m-9880 40l10 10-10-10m180 0v10h30l-30-10zm-130 10v10h90l-90-10" class="C"/><path d="M1200 19680v10h30l-30-10m4170 0 10 10-10-10" class="B"/><path d="M10930 19690v30h10l-10-30m13670 0 10 10-10-10m-22600 10 10 10-10-10" class="C"/><path d="m2013.33 19756.7 3.34 6.6-3.34-6.6M3630 19750l10 10-10-10" class="B"/><path d="m10923.3 19756.7 3.4 6.6-3.4-6.6M24620 19750l10 10-10-10" class="C"/><path d="m10923.3 19776.7 3.4 6.6-3.4-6.6M5550 19780l10 10-10-10zm-1906.67 16.7 3.34 6.6-3.34-6.6M5570 19790l10 10-10-10m2360 0 10 10-10-10zm-5906.67 16.7 3.34 6.6-3.34-6.6M5580 19800l10 10-10-10" class="B"/><path d="M5610 19810l10 10-10-10m2350 0l10 10-10-10m1340 0l10 10-10-10m1613.3 6.7l3.4 6.6-3.4-6.6m13726.7-6.7l10 10-10-10m-13736.7 56.7l3.4 6.6-3.4-6.6M980 19870l10 10-10-10" class="C"/><path d="M10903.3 19886.7l3.4 6.6-3.4-6.6M3670 19890l10 10-10-10m2070 0l10 10-10-10m-3690 50v30h10l-10-30m1650 0l10 10-10-10m2130 0l10 10-10-10" class="B"/><path d="M5890 19970l10 10-10-10m2350 0l10 10-10-10m1010 0l10 10-10-10m-7186.67 16.7l3.34 6.6-3.34-6.6M3730 19980l10 10-10-10m2230 30l10 10-10-10m2350 0l10 10-10-10m2563.3 6.7l3.4 6.6-3.4-6.6m13836.7-6.7l10 10-10-10" class="C"/><path d="m10870 20030 10 10-10-10m-8796.67 16.7 3.34 6.6-3.34-6.6M3820 20040l10 10-10-10" class="B"/><path d="m10863.3 20056.7 3.4 6.6-3.4-6.6M1040 20060l10 10-10-10m2810 0 10 10-10-10" class="C"/><path d="M8440 20080l10 10-10-10m770 0l10 10-10-10m-7126.67 16.7l3.34 6.6-3.34-6.6M3910 20090l10 10-10-10m2180 0l10 10-10-10m2470 60l10 10-10-10m2283.3 6.7l3.4 6.6-3.4-6.6M1080 20160l10 10-10-10m9753.3 36.7l3.4 6.6-3.4-6.6m13936.7-6.7l10 10-10-10" class="B"/><path d="M10793.3 20336.7l3.4 6.6-3.4-6.6m14026.7-6.7l10 10-10-10m-23670 10l10 10-10-10m1050 0l10 10-10-10m2140 0l10 10-10-10m6433.3 66.7l3.4 6.6-3.4-6.6M2310 20410l10 10-10-10m4510 90l10 10-10-10m3923.3 6.7l3.4 6.6-3.4-6.6M1230 20510l10 10-10-10m5640 20l10 10-10-10m3863.3 6.7l3.4 6.6-3.4-6.6m14156.7-6.7l10 10-10-10m-20800 890l10 10-10-10m2150 0l10 10-10-10m2193.33 6.7l3.34 6.6-3.34-6.6M1830 21430l10 10-10-10m2270 0l10 10-10-10" class="C"/><path d="M3426.67 22603.3l6.66 3.4-6.66-3.4M6150 22600l10 10-10-10zm3430 40l10 10-10-10m-6033.33 13.3l6.66 3.4-6.66-3.4M6240 22650l10 10-10-10m3330 0l10 10-10-10zm-5943.33 33.3l6.66 3.4-6.66-3.4M6290 22680l10 10-10-10zm-2583.33 33.3l6.66 3.4-6.66-3.4M6340 22710l10 10-10-10m-2570 20l10 10-10-10m2610 0l10 10-10-10m3120 0l10 10-10-10m-5703.33 13.3l6.66 3.4-6.66-3.4M6390 22740l10 10-10-10" class="B"/><path d="m6406.67 22763.3 6.66 3.4-6.66-3.4M9470 22760l10 10-10-10m-5583.33 13.3 6.66 3.4-6.66-3.4" class="C"/><path d="m3926.67 22783.3 6.66 3.4-6.66-3.4M6330 22780l10 10-10-10" class="B"/><path d="M6346.67 22783.3l6.66 3.4-6.66-3.4M9450 22780l10 10-10-10m-5500 10l10 10-10-10m2230 30v10h30l-30-10" class="C"/><path d="M4110 22830v10h30l-30-10m2026.67 3.3 6.66 3.4-6.66-3.4" class="B"/><path d="m6156.67 22833.3 6.66 3.4-6.66-3.4M9410 22830l10 10-10-10" class="C"/><path d="M4206.67 22853.3l6.66 3.4-6.66-3.4M6040 22850v10h30l-30-10m-1750 20v10h30l-30-10m1656.67 3.3l6.66 3.4-6.66-3.4" class="B"/><path d="M5960 22870v10h30l-30-10m3410 0 10 10-10-10m-5050 10v10h30l-30-10" class="C"/><path d="m4356.67 22883.3 6.66 3.4-6.66-3.4M5890 22880v10h30l-30-10" class="B"/><path d="M5850 22890v10h30l-30-10m3500 0 10 10-10-10" class="C"/><path d="M4470 22900v10h30l-30-10m1290 0 10 10-10-10m20 0 10 10-10-10" class="B"/><path d="M5790 22900v10h30l-30-10m3550 0-10 20 10-20m-4840 10v10h30l-30-10" class="C"/><path d="M4536.67 22913.3l6.66 3.4-6.66-3.4m23.33-3.3l10 10-10-10m1130 0v10h30l-30-10" class="B"/><path d="M5720 22910v10h30l-30-10" class="C"/><path d="M4626.67 22923.3l6.66 3.4-6.66-3.4m23.33-3.3l10 10-10-10m960 0l10 10-10-10m20 0v10h30l-30-10m-913.33 13.3l6.66 3.4-6.66-3.4m23.33-3.3l10 10-10-10m20 0l10 10-10-10m760 0l10 10-10-10m20 0v10h30l-30-10" class="B"/><path d="M5570 22930v10h30l-30-10zm-800 10v10h50l-50-10" class="C"/><path d="M4820 22940v10h70l-70-10m540 0l10 10-10-10m26.67 3.3l6.66 3.4-6.66-3.4m23.33-3.3v10h30l-30-10" class="B"/><path d="M5460 22940v10h30l-30-10m40 0 10 10-10-10zm20220 0 10 10-10-10m-20820 10 10 10-10-10m20 0 10 10-10-10m20 0v10h90l-90-10" class="C"/><path d="M5030 22950v10h30l-30-10zm80 0v10h60l-60-10" class="B"/><path d="M5280 22950v10h30l-30-10m40 0l10 10-10-10m20 0l10 10-10-10m14000 1510l10 10-10-10m-12403.33 13.3l6.66 3.4-6.66-3.4m4083.33-3.3l10 10-10-10m-4110 10l10 10-10-10" class="C"/><path d="M6346.67 24653.3l6.66 3.4-6.66-3.4m4623.33-3.3l10 10-10-10m-5003.33 83.3l6.66 3.4-6.66-3.4m4983.33-3.3l10 10-10-10" class="B"/><path d="m19420 24730 10 10-10-10m-13540 10v10h30l-30-10zm20460 0 10 10-10-10m-20520 10v10h30l-30-10" class="C"/><path d="m5786.67 24763.3 6.66 3.4-6.66-3.4M19430 24760l10 10-10-10" class="B"/><g class="C"><path d="M5680 24770v10h30l-30-10"/><path d="M10940 24770l10 10-10-10m15410 0l10 10-10-10m-20750 10v10h30l-30-10m-1360 10v10h30l-30-10m1270 0v10h30l-30-10"/></g><path d="M5540 24790v10h30l-30-10m13900 0 10 10-10-10m-15130 10v10h30l-30-10" class="B"/><path d="M4340 24800v10h40l-40-10m1060 0v10h40l-40-10" class="C"/><path d="M5440 24800v10h30l-30-10m5490 0 10 10-10-10zm-6700 10 10 10-10-10m200 0v10h30l-30-10" class="B"/><path d="M4460 24810v10h50l-50-10m810 0v10h50l-50-10" class="C"/><path d="M5320 24810v10h30l-30-10zm-730 10v10h50l-50-10" class="B"/><path d="M4640 24820v10h110l-110-10m390 0v10h110l-110-10" class="C"/><path d="M5140 24820v10h50l-50-10m14310 10 10 10-10-10" class="B"/></svg>