<svg width="32" height="32" viewBox="0 0 32 32" fill="none" xmlns="http://www.w3.org/2000/svg">
<path d="M16 32C24.8667 32 32 24.8667 32 16C32 7.13328 24.8667 0 16 0C7.13328 0 0 7.13328 0 16C0 24.8667 7.13328 32 16 32Z" fill="url(#paint0_linear_1614_10636)"/>
<path d="M8.33895 20.5C8.25204 20.5 8.17382 20.47 8.10429 20.41C8.03476 20.3414 8 20.26 8 20.1657V11.8343C8 11.74 8.03476 11.6629 8.10429 11.6029C8.17382 11.5343 8.25204 11.5 8.33895 11.5H10.503C10.5986 11.5 10.6812 11.5343 10.7507 11.6029C10.8202 11.6629 10.855 11.74 10.855 11.8343V18.2114H14.6225C14.7181 18.2114 14.8007 18.2457 14.8702 18.3143C14.9397 18.3743 14.9745 18.4514 14.9745 18.5457V20.1657C14.9745 20.26 14.9397 20.3414 14.8702 20.41C14.8007 20.47 14.7181 20.5 14.6225 20.5H8.33895Z" fill="white"/>
<path d="M16.4389 20.5C16.352 20.5 16.2737 20.47 16.2042 20.41C16.1347 20.3414 16.0999 20.26 16.0999 20.1657V11.8343C16.0999 11.74 16.1347 11.6629 16.2042 11.6029C16.2737 11.5343 16.352 11.5 16.4389 11.5H20.2455C21.0016 11.5 21.6578 11.6114 22.214 11.8343C22.7789 12.0571 23.2178 12.3957 23.5307 12.85C23.8436 13.3043 24 13.8743 24 14.56C24 15.2457 23.8436 15.8114 23.5307 16.2571C23.2178 16.6943 22.7789 17.0157 22.214 17.2214C21.6578 17.4271 21.0016 17.53 20.2455 17.53H19.007V20.1657C19.007 20.26 18.9723 20.3414 18.9027 20.41C18.8419 20.47 18.7637 20.5 18.6681 20.5H16.4389ZM18.9549 15.46H20.1803C20.4324 15.46 20.6453 15.3871 20.8191 15.2414C21.0016 15.0871 21.0929 14.8514 21.0929 14.5343C21.0929 14.2943 21.0233 14.0757 20.8843 13.8786C20.7452 13.6814 20.5106 13.5829 20.1803 13.5829H18.9549V15.46Z" fill="white"/>
<defs>
<linearGradient id="paint0_linear_1614_10636" x1="0" y1="16" x2="32" y2="16" gradientUnits="userSpaceOnUse">
<stop stop-color="#6E42CA"/>
<stop offset="1" stop-color="#8D29C1"/>
</linearGradient>
</defs>
</svg>
