<svg width="128" height="128" viewBox="0 0 128 128" fill="none" xmlns="http://www.w3.org/2000/svg">
<path d="M128 64.0006C128 98.0635 101.384 125.914 67.8121 127.886C67.7072 127.892 67.6035 127.9 67.4998 127.905C66.3428 127.971 65.1781 128 64.0019 128C62.8295 128 61.661 127.969 60.5027 127.905C60.4349 127.9 60.3683 127.899 60.3005 127.894C26.6741 125.975 0 98.1032 0 64.0006C0 28.6528 28.6541 4.28746e-08 64.0006 4.28746e-08C99.3459 -0.00127984 128 28.6528 128 64.0006Z" fill="url(#paint0_linear_3308_283377)"/>
<path d="M82.6013 86.2335C80.5612 87.6376 78.3086 88.7664 76.1302 89.8556C75.4954 90.173 74.8324 90.5045 74.195 90.836C69.7385 93.1334 67.6407 96.5008 67.7866 101.126C67.7982 101.524 67.8046 103.544 67.8097 106.451C67.8122 107.151 67.8122 119.031 67.8122 127.885C67.7073 127.891 67.6036 127.899 67.4999 127.904C66.3429 127.969 65.1782 127.999 64.002 127.999C62.8296 127.999 61.6611 127.968 60.5028 127.904C60.435 127.899 60.3684 127.898 60.3006 127.893C60.3006 119.037 60.3006 107.149 60.3032 106.449C60.3083 103.545 60.3121 101.527 60.3236 101.128C60.4721 96.5021 58.3744 93.1334 53.9178 90.8373C53.2779 90.5058 52.6149 90.1743 51.9826 89.8569C49.8017 88.7677 47.5517 87.6389 45.509 86.2348C42.3643 84.0705 40.7363 81.3162 40.6019 77.8887C40.5417 76.4028 40.7644 74.7901 41.2649 73.0443C41.3941 72.59 41.5426 72.1471 41.7051 71.712C42.4283 69.7832 43.4432 68.0195 44.4313 66.3019C44.8857 65.5186 45.3541 64.7072 45.7803 63.8957C46.4868 62.5608 47.0615 61.2438 47.4864 59.9882C47.5773 59.7028 47.7014 59.219 47.7014 59.219C44.4774 60.888 40.7094 60.9827 40.7094 60.9827L42.322 59.1998C45.5998 55.6904 47.4557 52.4689 48.4924 50.105C48.8405 49.3166 49.0978 48.6241 49.2821 48.0495C49.6737 46.8489 49.7671 46.154 49.7671 46.154L50.5645 47.5004C50.8026 47.9599 51.0189 48.4206 51.2134 48.8814C52.1132 51.0316 52.5304 53.2484 52.4792 55.6149C52.4024 59.3445 51.1469 62.7925 49.9322 66.1253L49.8209 66.4312C49.7095 66.7255 49.6059 67.0174 49.4958 67.3092C48.5576 69.8561 47.6694 72.2623 47.5005 74.8976C47.4889 75.0627 47.4838 75.2227 47.4838 75.3814C47.4774 77.8337 48.6703 79.6511 51.1225 80.9271C52.332 81.5581 53.6286 82.1712 55.0006 82.1712C55.2886 82.1712 55.5778 82.143 55.8632 82.0906C58.1465 81.6618 60.4222 79.7241 60.362 76.8597C60.3057 74.2218 60.4196 71.5494 60.5284 68.9615C60.5399 68.6927 60.5514 68.4214 60.563 68.1475C60.595 67.3808 60.6282 66.5988 60.6538 65.8322C60.7025 64.3002 60.7537 62.7707 60.8049 61.2451C60.9162 57.8726 61.0301 54.5231 61.1453 51.2466C61.1824 50.2381 61.2336 49.2551 61.2848 48.2197C61.2963 47.9932 61.3079 47.7653 61.3194 47.5337C59.9166 47.5657 58.1184 49.8323 58.1184 49.8323C58.1184 49.8323 57.5552 47.8997 58.3296 44.8011C58.5151 44.0639 58.775 43.2601 59.1359 42.4001C59.9627 40.4303 61.3219 38.1662 63.5233 35.7319L64.0583 35.0894L64.5895 35.7319C65.447 36.6803 67.0699 37.4418 67.7879 38.2532C68.2653 38.7908 68.6966 39.3219 69.0883 39.848C71.8976 43.6326 72.5644 47.096 72.5132 49.6493C72.4582 52.3307 71.6045 54.0112 71.6045 54.0112C71.6045 54.0112 71.2666 53.0986 70.5589 51.9826C69.7794 50.7513 68.552 49.273 66.8318 48.4987C66.8318 48.4987 66.9573 51.7855 67.1006 55.6443C67.1889 58.0479 67.2836 60.6742 67.363 62.868C67.4027 64.0019 67.4372 65.0169 67.4628 65.8296C67.4935 66.8702 67.5422 67.9338 67.5831 68.9589C67.6945 71.5481 67.8084 74.2206 67.7521 76.8571C67.6894 79.7215 69.965 81.6592 72.2483 82.088C72.5337 82.1418 72.823 82.1686 73.1148 82.1686C74.4817 82.1686 75.7782 81.5543 76.9903 80.9246C79.6 79.5641 80.789 77.5918 80.6124 74.8938C80.4409 72.2585 79.5526 69.8523 78.6145 67.3053C78.5057 67.0135 78.4007 66.7217 78.2919 66.4273L78.1806 66.1214C76.9634 62.7886 75.7078 59.3393 75.6311 55.611C75.6221 55.2027 75.6285 54.7996 75.6477 54.4015C75.7642 51.9813 76.3887 49.7133 77.5483 47.4966L78.3431 46.1501C78.3431 46.1501 78.5466 47.6591 79.5987 50.0653C80.6341 52.4344 82.4938 55.6699 85.7869 59.1973L87.3996 60.9801C87.3996 60.9801 83.6329 60.8854 80.4076 59.2165C80.4076 59.2165 80.533 59.7003 80.6252 59.9857C81.0475 61.2412 81.6222 62.5582 82.3287 63.8932C82.7574 64.7046 83.2284 65.5161 83.6777 66.2993C84.8897 68.406 86.144 70.5818 86.8454 73.0418C88.5016 78.8179 87.1116 83.1324 82.6013 86.2335Z" fill="#161630"/>
<path d="M37.9332 56.0704C37.8909 59.0155 35.8137 61.0735 32.884 61.0735H32.8751C30.1182 61.071 28.0486 58.9668 27.9539 56.0717L27.9526 56.0436L27.9539 56.0154C28.0793 53.2189 30.2334 51.1083 32.9659 51.1045C34.3303 51.1045 35.5974 51.6292 36.5381 52.5828C37.4558 53.5158 37.9524 54.7547 37.9332 56.0704Z" fill="#161630"/>
<path d="M112.331 69.0946C112.519 63.4695 110.627 57.8636 110.504 57.504C110.029 55.8209 109.633 54.5372 109.224 53.3443C108.061 49.9309 106.325 46.5098 104.063 43.1718C100.095 37.3202 95.1161 32.504 89.2645 28.8601C88.9753 28.6797 88.6732 28.5107 88.384 28.3482C87.7005 27.9655 87.0516 27.602 86.5832 27.1169C83.9709 24.4215 81.4099 22.1779 78.7605 20.2593C74.4499 17.1377 70.152 14.7251 65.6212 12.8821C65.3268 12.7618 65.0721 12.7054 64.8213 12.7054C64.3695 12.7054 63.9612 12.8961 63.5747 13.2878C61.0226 15.8744 58.3118 18.5904 55.034 21.8336C54.883 21.9846 54.6334 22.1228 54.3275 22.2252C54.0523 22.3199 53.7413 22.3737 53.4098 22.4287C53.2665 22.4543 53.1218 22.4799 52.9785 22.5081C49.6943 23.1621 46.3641 24.2423 43.0773 25.7232C39.0214 27.547 35.2777 29.8764 31.9526 32.6409C26.3761 37.2741 21.9823 42.9107 18.8926 49.3869C17.4668 52.3742 16.3149 55.6302 15.3704 59.3483L15.364 59.3662C15.3614 59.3803 15.2667 59.7207 15.1374 60.2954L15.0568 60.6294C15.0312 60.7357 15.0082 60.8521 14.9851 60.9891C14.7087 62.3151 14.3567 64.3565 14.2415 66.586V66.5886C14.1762 67.2913 14.1506 67.8749 14.1609 68.4214C14.1929 70.1364 14.2927 71.872 14.39 73.5499C14.4476 74.5469 14.5077 75.5785 14.5525 76.5883C14.596 77.6033 15.396 77.9002 15.6955 78.0141C18.5342 79.0713 21.1004 79.6498 23.5335 79.7855C24.263 79.8277 25.0143 79.8456 25.8347 79.8456C27.7033 79.8456 29.5937 79.7394 31.4252 79.637L31.8374 79.614C34.7209 79.454 37.666 78.8742 40.6059 77.89C40.7377 77.8465 40.8695 77.8017 41.0026 77.7556C43.1413 77.0094 45.335 76.2466 47.4878 75.384C47.8257 75.2496 48.1623 75.1126 48.4989 74.9718C48.9853 74.7696 49.4703 74.5597 49.9516 74.3434C50.3752 74.1514 50.7976 73.9518 51.2174 73.7495C53.7503 72.5209 56.1398 71.1091 58.3323 69.668C59.1015 69.1624 59.8476 68.6556 60.5669 68.15C61.3809 67.5779 62.1591 67.0097 62.9014 66.4555H62.904L62.9066 66.4504C62.9155 66.4452 62.9322 66.4337 62.9526 66.4184C62.9667 66.4094 62.9808 66.3979 62.9949 66.3902C62.9949 66.3902 62.9949 66.3902 62.9949 66.3877C63.4608 66.0395 63.91 65.6991 64.3464 65.365C64.381 65.3369 64.4181 65.31 64.4578 65.2793C65.0926 64.7814 65.8951 64.1338 66.8038 63.3582C66.9894 63.2007 67.1775 63.0382 67.3695 62.8718C69.8052 60.7562 72.8807 57.8239 75.6555 54.4054C76.0932 53.8678 76.522 53.3162 76.9418 52.7556C77.0365 52.5956 77.2387 52.332 77.3821 52.1413C78.0284 51.2863 78.7682 50.5952 79.6065 50.0691C80.7814 49.3293 82.1509 48.9108 83.7418 48.7969C83.8967 48.7854 84.0567 48.7803 84.2141 48.7803C85.2495 48.7803 86.3259 49.0171 87.5904 49.5213C90.1937 50.5593 92.509 53.8832 92.6473 56.7757C92.7676 59.2574 91.8921 61.4857 89.8059 63.9955C89.2287 64.6905 88.6195 65.3561 87.9769 66.0562C87.68 66.3812 87.3818 66.7076 87.0823 67.0417L86.308 67.9043L87.4138 68.2499C90.3524 69.1701 93.1195 70.5422 95.8662 72.4428C96.3231 72.7717 98.6781 74.4893 100.823 76.5333L100.906 76.6191C101.555 77.2731 102.207 77.9629 102.836 78.6745C102.888 78.7347 102.936 78.791 102.985 78.8435C104.964 81.0922 106.798 83.597 108.436 86.2835L109.27 87.6504L109.779 86.1324C111.61 80.6366 112.446 75.0678 112.334 69.1087V69.0946H112.331ZM91.6681 44.8741C89.1877 43.9244 86.8724 43.4624 84.5917 43.4624C83.6625 43.4624 82.7333 43.543 81.8284 43.7017C78.2102 44.3327 75.292 46.0592 73.1508 48.8379C72.9396 49.1092 72.7284 49.3805 72.5108 49.6519C71.885 50.4377 71.2335 51.2159 70.5564 51.9864C69.4711 53.2215 68.3218 54.4412 67.0982 55.6481C65.515 57.2109 63.8089 58.7557 61.9671 60.2954C61.5819 60.6179 61.1928 60.9353 60.8012 61.2476C59.8784 61.9874 58.9351 62.7054 57.9765 63.3978C61.1493 43.6979 44.0871 41.4209 44.0871 41.4209C44.0871 41.4209 47.0629 43.9653 49.2809 48.0495C51.0126 51.2389 52.2822 55.3691 51.3108 59.9575C50.1013 65.6658 46.478 69.0268 41.704 71.7107C41.5043 71.822 41.3034 71.9334 41.0986 72.0422C39.6293 72.8344 37.8323 73.1992 36.2453 73.5192C33.9479 73.985 31.4918 74.3536 28.9423 74.6135C28.6338 74.6442 28.3049 74.6595 27.9388 74.6595C27.3181 74.6595 26.6666 74.6135 26.0382 74.5687C25.6696 74.5431 25.2895 74.5175 24.9145 74.4996C24.2336 74.4676 23.3389 74.4138 22.4673 74.2935C21.7903 74.2013 21.0978 74.0593 20.4259 73.9223C20.2493 73.8852 20.0714 73.8481 19.8948 73.8135C19.5492 73.7444 19.5517 73.6766 19.5569 73.4501C19.5825 72.5017 19.585 71.5405 19.5876 70.6138C19.5927 68.7503 19.5991 66.8267 19.7847 64.9708C20.0816 62.0181 20.8278 58.9349 22.068 55.556C23.7485 50.974 26.1329 46.7606 29.1534 43.0362C32.4888 38.9252 36.4398 35.5015 40.9002 32.8572C43.8068 31.1345 46.9682 29.7215 50.2984 28.6528C54.3032 27.3691 58.5729 26.7176 62.9859 26.7176C64.0866 26.7176 65.2155 26.7599 66.3418 26.8379C68.5137 26.9915 70.7267 27.4433 72.8641 27.8759C73.2096 27.945 73.5527 28.0154 73.8957 28.0871C76.7088 28.6477 79.6526 29.7394 83.1659 31.5197C86.2696 33.094 89.1685 35.0638 92.0265 37.5454C96.3858 41.3326 99.5983 45.2376 101.847 49.4881C102.153 50.0678 102.452 50.6771 102.747 51.3234C99.551 48.6318 95.8329 46.4688 91.6681 44.8741Z" fill="#161630"/>
<path d="M101.845 49.4867C99.597 45.2362 96.3845 41.3313 92.0239 37.5441C89.166 35.0624 86.267 33.0914 83.1633 31.5184C79.65 29.7381 76.7063 28.6464 73.8931 28.0858C73.5501 28.0141 73.2071 27.945 72.8615 27.8746C70.7241 27.4407 68.5112 26.9889 66.3392 26.8366C65.2129 26.7573 64.0841 26.7163 62.9834 26.7163C58.5703 26.7163 54.3006 27.3678 50.2959 28.6515C46.9656 29.7202 43.8043 31.1332 40.8977 32.8559C36.4386 35.5002 32.4863 38.9238 29.1509 43.0348C26.1304 46.7593 23.7459 50.9727 22.0655 55.5547C20.8252 58.9336 20.0791 62.0168 19.7821 64.9695C19.5966 66.8266 19.5902 68.7503 19.585 70.6125C19.5825 71.5392 19.5799 72.5016 19.5543 73.4487C19.5492 73.6753 19.5479 73.7431 19.8922 73.8122C20.0688 73.8468 20.2467 73.8839 20.4234 73.921C21.0953 74.058 21.789 74.1988 22.4648 74.2922C23.3364 74.4125 24.231 74.4663 24.9119 74.4982C25.2869 74.5162 25.667 74.5418 26.0357 74.5674C26.6641 74.6109 27.3155 74.6582 27.9363 74.6582C28.3023 74.6582 28.6313 74.6416 28.9397 74.6122C31.4892 74.3523 33.9453 73.9837 36.2427 73.5179C37.8298 73.1979 39.6268 72.8344 41.0961 72.0409C41.2996 71.9321 41.5018 71.8207 41.7014 71.7094C46.4754 69.0255 50.0988 65.6645 51.3083 59.9562C52.2797 55.3665 51.0088 51.2363 49.2784 48.0481C47.0603 43.964 44.0846 41.4196 44.0846 41.4196C44.0846 41.4196 61.148 43.6953 57.9739 63.3965C58.9338 62.7041 59.8771 61.9848 60.7986 61.2463C61.1902 60.934 61.5793 60.6153 61.9646 60.2941C63.8076 58.7557 65.5124 57.2096 67.0956 55.6468C68.3192 54.4399 69.4685 53.2202 70.5539 51.9851C71.2309 51.2159 71.8824 50.4364 72.5083 49.6506C72.7258 49.3792 72.937 49.1079 73.1482 48.8366C75.2895 46.0579 78.2076 44.3314 81.8258 43.7004C82.7294 43.543 83.6586 43.461 84.5891 43.461C86.8699 43.461 89.1852 43.9218 91.6656 44.8728C95.8303 46.4675 99.5484 48.6292 102.742 51.3208C102.45 50.6757 102.15 50.0665 101.845 49.4867ZM32.8843 61.0748H32.8754C30.1198 61.0697 28.0502 58.9681 27.9529 56.0705V56.0154C28.0783 53.2176 30.2337 51.1084 32.9662 51.1045C34.3319 51.1045 35.599 51.6305 36.5384 52.5828C37.4586 53.5171 37.9539 54.7547 37.936 56.0705C37.8925 59.0168 35.814 61.0748 32.8843 61.0748Z" fill="url(#paint1_linear_3308_283377)"/>
<path d="M41.7729 107.997C45.1762 99.0017 53.8704 92.6074 64.057 92.6074C74.2436 92.6074 82.9366 99.0017 86.3411 107.997C80.9566 102.909 72.9701 99.6865 64.057 99.6865C55.1413 99.6865 47.1561 102.908 41.7729 107.997Z" fill="#161630"/>
<path d="M68.9754 42.4115C68.9754 42.4115 67.4844 40.5326 66.3235 40.507C66.3338 40.6952 66.3427 40.8846 66.353 41.0728C66.3965 41.9328 66.4387 42.7481 66.4681 43.5826C66.4848 44.069 66.5014 44.5553 66.5206 45.0468C66.5334 45.4525 66.5475 45.8608 66.5629 46.2704C65.0859 48.3015 62.7578 49.2 61.4382 49.5635C61.4446 49.3715 61.451 49.1808 61.4574 48.9888C61.5201 47.1676 61.5828 45.3642 61.6455 43.5826C61.675 42.7468 61.7159 41.9328 61.7607 41.0728C61.7684 40.8846 61.7799 40.6952 61.7876 40.507C60.6268 40.5326 59.1382 42.4115 59.1382 42.4115C59.1382 42.4115 58.6698 40.8104 59.311 38.2416C59.814 36.2284 60.9966 33.6225 63.6166 30.7287L64.0568 30.1989L64.4971 30.7287C65.2075 31.5133 65.8128 32.2787 66.3286 33.0159C70.1273 38.4605 68.9754 42.4115 68.9754 42.4115Z" fill="#161630"/>
<path d="M70.6585 44.4619C70.6214 44.2289 70.5613 43.9973 70.4806 43.7708C69.5438 45.4308 67.9733 46.3894 64.2361 47.0063C61.2693 47.4952 58.3998 46.8681 57.2978 45.8544C57.2902 46.0937 57.3055 46.3331 57.3413 46.566C57.71 48.9005 60.1801 50.5324 63.3466 50.5324C63.8188 50.5324 64.3001 50.494 64.7762 50.4185C66.5271 50.142 68.1013 49.3869 69.2084 48.2951C70.3552 47.1624 70.8697 45.8019 70.6585 44.4619Z" fill="#161630"/>
<defs>
<linearGradient id="paint0_linear_3308_283377" x1="64.0001" y1="223.385" x2="64.0001" y2="5.31815" gradientUnits="userSpaceOnUse">
<stop offset="0.0027933" stop-color="#8D29C1" stop-opacity="0"/>
<stop offset="0.3165" stop-color="#942BBB"/>
<stop offset="0.5617" stop-color="#A92FAC"/>
<stop offset="0.8083" stop-color="#CA3793"/>
<stop offset="1" stop-color="#F03F77"/>
</linearGradient>
<linearGradient id="paint1_linear_3308_283377" x1="96.0002" y1="43.5" x2="20.0002" y2="75" gradientUnits="userSpaceOnUse">
<stop offset="0.00958936" stop-color="#33C3F5"/>
<stop offset="0.299566" stop-color="#9212E7"/>
<stop offset="0.546766" stop-color="#C4F722"/>
<stop offset="0.677818" stop-color="#EA920F"/>
<stop offset="0.897058" stop-color="#D00243"/>
</linearGradient>
</defs>
</svg>
