<svg width="153" height="18" viewBox="0 0 153 18" fill="none" xmlns="http://www.w3.org/2000/svg">
<g opacity="0.5">
<path fill-rule="evenodd" clip-rule="evenodd" d="M28.71 2.61768C28.9432 2.61768 29.0587 2.73319 29.0587 2.96203V8.25383H39.0865V2.96203C39.0865 2.73101 39.2021 2.61768 39.4353 2.61768H41.1462C41.399 2.61768 41.5145 2.73319 41.5145 2.96203V15.6924C41.5145 15.9234 41.399 16.0368 41.1462 16.0368H39.4353C39.2021 16.0368 39.0865 15.9213 39.0865 15.6924V10.2873H29.0587V15.6924C29.0587 15.9234 28.9432 16.0368 28.71 16.0368H26.9991C26.7659 16.0368 26.6504 15.9213 26.6504 15.6924V2.96203C26.6504 2.73101 26.7659 2.61768 26.9991 2.61768H28.71Z" fill="#FEFEFE"/>
<path fill-rule="evenodd" clip-rule="evenodd" d="M49.1579 11.3008H56.9322L53.336 4.9737C53.2576 4.85819 53.2009 4.83857 53.1028 4.83857H52.9851C52.8892 4.83857 52.8304 4.85819 52.7519 4.9737L49.1579 11.3008ZM53.4145 2.61768C54.2492 2.61768 54.7353 2.86613 55.2801 3.82511L62.0823 15.6532C62.2174 15.8842 62.1608 16.0368 61.8883 16.0368H59.905C59.711 16.0368 59.6129 15.9779 59.517 15.8254L57.9827 13.1228H48.1314L46.6145 15.8254C46.536 15.9779 46.4401 16.0368 46.2243 16.0368H44.1843C43.9337 16.0368 43.8749 15.8842 43.9904 15.6532L50.7533 3.82511C51.2982 2.86613 51.782 2.61768 52.4642 2.61768H53.4145Z" fill="#FEFEFE"/>
<path fill-rule="evenodd" clip-rule="evenodd" d="M65.8354 2.61768C66.0686 2.61768 66.1841 2.73319 66.1841 2.96203V10.745C66.1841 13.064 66.9229 13.8115 69.2354 13.8115H77.1055C77.3583 13.8115 77.476 13.927 77.476 14.1581V15.6924C77.476 15.9234 77.3605 16.0368 77.1055 16.0368H69.1569C65.2513 16.0368 63.7736 14.6572 63.7736 10.976V2.96203C63.7736 2.73101 63.8891 2.61768 64.1223 2.61768H65.8354Z" fill="#FEFEFE"/>
<path fill-rule="evenodd" clip-rule="evenodd" d="M82.5106 10.0931V13.6391C82.5106 13.8113 82.5891 13.8875 82.7438 13.8875H91.294C92.5755 13.8875 93.1007 13.4277 93.1007 12.412V11.5882C93.1007 10.6292 92.6147 10.0931 90.9234 10.0931H82.5106ZM82.5106 8.36908H90.9256C92.6169 8.36908 93.0637 7.86998 93.0637 6.95024V6.22228C93.0637 5.22626 92.558 4.76421 91.2569 4.76421H82.746C82.5913 4.76421 82.5128 4.86011 82.5128 5.01267V8.36908H82.5106ZM91.7407 2.61742C94.3823 2.61742 95.3936 3.65267 95.3936 5.72319V6.66254C95.3936 7.7937 94.9468 8.63716 94.0139 9.1537C95.0252 9.6528 95.4895 10.4963 95.4895 11.6645V12.8152C95.4895 14.8095 94.5959 16.0365 92.0306 16.0365H80.6842C80.2941 16.0365 80.1001 15.8447 80.1001 15.4611V3.19062C80.1001 2.80703 80.2941 2.61523 80.6842 2.61523H91.7407V2.61742Z" fill="#FEFEFE"/>
<path fill-rule="evenodd" clip-rule="evenodd" d="M100.526 10.8038C100.526 13.1228 101.265 13.8529 103.578 13.8529H109.329C111.661 13.8529 112.38 13.125 112.38 10.8038V7.8528C112.38 5.53383 111.661 4.8037 109.329 4.8037H103.578C101.265 4.8037 100.526 5.53165 100.526 7.8528V10.8038ZM109.427 2.61768C113.333 2.61768 114.808 3.99729 114.808 7.67845V10.976C114.808 14.6572 113.333 16.0368 109.427 16.0368H103.499C99.5934 16.0368 98.1157 14.6572 98.1157 10.976V7.67845C98.1157 3.99729 99.5934 2.61768 103.499 2.61768H109.427Z" fill="#FEFEFE"/>
<path fill-rule="evenodd" clip-rule="evenodd" d="M120.14 9.72934H128.167C129.74 9.72934 130.324 9.03845 130.324 7.65883V6.83498C130.324 5.45536 129.74 4.76447 128.167 4.76447H120.373C120.218 4.76447 120.14 4.82332 120.14 4.9955V9.72934ZM128.631 2.61768C131.567 2.61768 132.75 3.97768 132.75 6.52768V7.58255C132.75 9.80562 131.856 11.109 129.701 11.4163L133.216 15.614C133.334 15.7491 133.295 16.0346 133.003 16.0346H130.982C130.71 16.0346 130.612 15.9583 130.516 15.8232L127.192 11.6429H120.137V15.6924C120.137 15.9234 120.022 16.0368 119.789 16.0368H118.078C117.845 16.0368 117.729 15.9213 117.729 15.6924V3.19306C117.729 2.80947 117.923 2.61768 118.313 2.61768H128.631Z" fill="#FEFEFE"/>
<path fill-rule="evenodd" clip-rule="evenodd" d="M138.914 2.61768C139.942 2.61768 140.176 2.82909 140.799 3.55703L149.253 13.6219C149.332 13.7178 149.41 13.757 149.526 13.757H149.72C149.837 13.757 149.894 13.6982 149.894 13.5652V2.96421C149.894 2.73319 149.99 2.61985 150.243 2.61985H151.895C152.128 2.61985 152.243 2.73537 152.243 2.96421V14.352C152.243 15.6554 151.757 16.039 150.748 16.039H149.369C148.397 16.039 148.124 15.8668 147.483 15.0996L139.01 5.03473C138.931 4.93883 138.855 4.90177 138.737 4.90177H138.543C138.428 4.90177 138.388 4.96062 138.388 5.09357V15.6924C138.388 15.9234 138.271 16.0368 138.02 16.0368H136.368C136.135 16.0368 136.017 15.9213 136.017 15.6924V4.3046C136.017 3.00126 136.503 2.61768 137.495 2.61768H138.914Z" fill="#FEFEFE"/>
<path fill-rule="evenodd" clip-rule="evenodd" d="M8.92022 16.9521L17.4856 0.213592C17.5532 0.0828229 17.6883 0 17.8365 0H19.5234C19.7915 0 19.9637 0.281157 19.846 0.520901L11.4942 17.2463C11.4353 17.364 11.3155 17.4381 11.1847 17.4381H9.21881C8.96598 17.4359 8.80688 17.1744 8.92022 16.9521Z" fill="white"/>
<path fill-rule="evenodd" clip-rule="evenodd" d="M0.404974 16.9782L9.00523 0.17C9.05972 0.0653844 9.16651 0 9.2842 0H11.0932C11.3264 0 11.479 0.246279 11.3743 0.45333L2.98113 17.2615C2.92882 17.3683 2.81985 17.4359 2.69997 17.4359H0.683948C0.450743 17.4359 0.298179 17.1874 0.404974 16.9782Z" fill="white"/>
</g>
</svg>
