<svg width="40" height="40" viewBox="0 0 40 40" fill="none" xmlns="http://www.w3.org/2000/svg">
<path fill-rule="evenodd" clip-rule="evenodd" d="M18.7933 2.0175C16.6722 2.1729 14.8074 2.62457 12.8366 3.46016C12.4928 3.60593 11.3022 4.20655 10.9721 4.40076C10.1428 4.88853 9.08409 5.64078 8.36472 6.25341C7.82139 6.71641 6.62298 7.92065 6.20389 8.42506C5.34717 9.45639 4.51543 10.7162 3.96407 11.8176C3.87163 12.0022 3.78201 12.1585 3.7649 12.1649C3.74784 12.1716 3.73383 12.1955 3.73383 12.2184C3.73383 12.2411 3.61657 12.5312 3.47321 12.8624C3.18561 13.5275 2.81523 14.5888 2.62272 15.299C2.13042 17.1158 1.90443 19.3747 2.03769 21.1468C2.289 24.4888 3.28739 27.4123 5.0908 30.0873C6.40053 32.0301 8.10461 33.716 10.1145 35.0578C12.3913 36.5773 15.1038 37.565 17.9258 37.902C18.6988 37.9942 20.4643 38.0304 21.3031 37.9711C24.7015 37.7307 27.9317 36.5421 30.671 34.5242C34.2714 31.8721 36.7672 27.9693 37.6529 23.6071C37.917 22.3061 38.0012 21.4265 38 19.9806C37.9991 18.9256 37.9888 18.7088 37.9045 17.9875C37.5224 14.7232 36.3475 11.757 34.4173 9.18481C33.1937 7.55378 31.5474 6.00536 29.9048 4.94013C28.9448 4.31731 28.4648 4.05086 27.5248 3.61842C25.5848 2.7258 23.5117 2.18918 21.3915 2.03078C20.9451 1.99742 19.1897 1.98845 18.7933 2.0175ZM21.5659 5.05001C22.9139 5.1938 24.325 5.54465 25.5894 6.05031L26.0047 6.21637V6.54099C26.0049 7.80494 25.1698 8.93094 23.919 9.35271L23.5834 9.46597L19.5886 9.48865C15.7943 9.51003 15.1086 9.52774 14.1975 9.62804C12.1291 9.85592 10.5051 10.1708 8.72181 10.6901C8.46127 10.7659 8.22551 10.8281 8.19803 10.8281C8.13124 10.8281 8.22384 10.6964 8.60735 10.245C9.38374 9.33169 10.6841 8.15912 11.5111 7.62702C11.5985 7.57063 11.678 7.51632 11.6877 7.50612C11.6975 7.49593 11.8326 7.40603 11.9882 7.30657C13.0836 6.60529 14.2849 6.04552 15.541 5.65057C16.7034 5.28515 17.7764 5.09475 19.3058 4.98217C19.6617 4.95616 21.0868 4.99881 21.5659 5.05001ZM29.0797 8.03926C29.8325 8.61297 31.2368 9.93584 31.2368 10.0713C31.2368 10.2417 30.6647 11.2586 30.2556 11.8153C28.8506 13.7271 26.7465 15.0175 24.4317 15.387C23.8382 15.4819 23.4322 15.4916 20.0482 15.4937C15.8165 15.4963 15.2299 15.5189 13.6673 15.7399C10.7751 16.149 8.03552 17.0628 5.48971 18.4678C5.27892 18.5839 5.09746 18.6699 5.08622 18.6586C5.04856 18.621 5.18653 17.6005 5.30763 17.0205C5.43644 16.4037 5.65036 15.6122 5.81038 15.1612L5.90923 14.8828L6.26195 14.7261C8.65771 13.6619 11.5323 12.9003 14.1624 12.6329C15.5797 12.4889 15.7686 12.4833 19.677 12.4679C21.9585 12.4589 23.6657 12.4379 23.8352 12.4171C24.1161 12.3821 24.65 12.2563 24.9755 12.1478C25.0652 12.1179 25.3455 11.9937 25.5983 11.8717C27.0868 11.1534 28.2009 9.8655 28.7103 8.27481C28.8006 7.99265 28.8558 7.86904 28.8822 7.88902C28.9037 7.90525 28.9925 7.97288 29.0797 8.03926ZM33.2969 12.9925C33.5631 13.4499 34.0057 14.5194 34.2733 15.3512C34.4917 16.0309 34.5078 16.1124 34.4414 16.2137C34.3486 16.3553 33.212 17.5052 32.8761 17.7975C31.2399 19.2209 29.3126 20.2876 27.2989 20.8844C26.2996 21.1805 25.378 21.3528 24.1874 21.4662C23.9949 21.4845 22.1735 21.5016 20.1398 21.5043C15.7529 21.5097 15.4862 21.5214 13.9855 21.769C11.3244 22.2082 8.59341 23.3723 6.38951 25.0067C6.20451 25.1438 6.03034 25.2579 6.00266 25.26C5.94419 25.2644 5.82516 24.9355 5.58835 24.1152C5.41875 23.5276 5.173 22.3543 5.19027 22.2141C5.19859 22.1473 5.30805 22.0604 5.69572 21.8127C7.96372 20.3633 10.4275 19.373 13.0133 18.8711C13.7329 18.7314 13.8469 18.7144 14.6926 18.6193C15.7341 18.5022 16.0804 18.4936 20.3134 18.482C24.1976 18.4712 24.2415 18.4693 25.2801 18.2674C26.8954 17.9538 28.4708 17.2892 29.807 16.358C31.0357 15.5014 32.2573 14.255 32.9995 13.0997C33.0896 12.9594 33.1737 12.8441 33.1864 12.8435C33.1991 12.8428 33.2488 12.9099 33.2969 12.9925ZM35.0191 20.2722C35.0184 21.2588 34.8276 22.638 34.5371 23.7525C34.4535 24.0738 34.4306 24.1219 34.3334 24.1806C34.2731 24.2172 34.1124 24.3154 33.9763 24.3993C31.4522 25.9531 28.5141 26.9996 25.7477 27.33C25.4127 27.37 25.0034 27.4212 24.8381 27.4437C24.6342 27.4714 23.1743 27.4928 20.2957 27.5102C17.9625 27.5242 16.0059 27.5446 15.9474 27.5552C15.8892 27.5661 15.6904 27.5931 15.5056 27.6156C13.3977 27.8711 11.1994 28.8146 9.52378 30.1828C9.37395 30.3051 9.23578 30.4052 9.21663 30.4052C9.11489 30.4052 8.05382 29.1101 7.59561 28.4265C7.39875 28.1327 7.35547 28.0451 7.38752 28.0058C7.45764 27.9196 8.33184 27.2606 8.70058 27.0158C9.99927 26.1541 11.386 25.5069 12.8189 25.0941C13.6538 24.8535 14.2669 24.7293 15.3256 24.5868C15.8032 24.5225 16.4972 24.5104 20.9672 24.489C24.2363 24.4731 24.4989 24.4628 25.5806 24.3069C28.1575 23.9354 30.6392 22.9876 32.8805 21.5185C33.3279 21.2252 34.1944 20.5735 34.6127 20.2154C34.807 20.0489 34.9781 19.9122 34.9926 19.9114C35.0072 19.9105 35.0191 20.0729 35.0191 20.2722ZM32.2618 28.6627C32.2618 28.697 31.8026 29.2965 31.4692 29.6975C31.109 30.131 30.0777 31.1608 29.6484 31.516C27.2514 33.4991 24.5033 34.6509 21.4092 34.9692C20.7745 35.0342 19.0821 35.0239 18.4609 34.9506C16.89 34.7658 15.5202 34.4131 14.1624 33.8439C13.8431 33.7102 12.9902 33.2927 12.7174 33.1367C12.1564 32.8162 11.5458 32.4254 11.5468 32.388C11.5489 32.3157 12.5463 31.6852 13.0695 31.4258C13.8732 31.0268 14.5806 30.7994 15.6071 30.61C16.0071 30.5361 16.1318 30.5335 20.1896 30.5089C22.4838 30.4949 24.4325 30.4743 24.5199 30.4629C24.6076 30.4514 24.8939 30.4248 25.1564 30.4034C26.1649 30.3214 27.5627 30.0875 28.6273 29.8228C29.185 29.6842 30.1254 29.4253 30.2292 29.382C30.2681 29.3658 30.5147 29.2793 30.7771 29.1898C31.0395 29.1001 31.469 28.9409 31.7316 28.8358C32.2406 28.6321 32.2618 28.6252 32.2618 28.6627Z" fill="white"/>
</svg>
