<svg width="109" height="32" viewBox="0 0 109 32" fill="none" xmlns="http://www.w3.org/2000/svg">
    <path d="M108.774 2.80164C109.352 1.48026 108.384 0 106.942 0H8C3.58172 0 0 3.58172 0 8V24C0 28.4183 3.58172 32 8 32H106.942C108.384 32 109.352 30.5197 108.774 29.1984L103 16L108.774 2.80164Z" fill="url(#paint0_linear_1755_12162)"/>
    <path d="M8.59619 12.1797H11.6738C12.2754 12.1797 12.7982 12.2692 13.2422 12.4482C13.6862 12.6273 14.0282 12.8923 14.2681 13.2432C14.5116 13.5941 14.6333 14.0273 14.6333 14.543C14.6333 14.9906 14.5635 15.3647 14.4238 15.6655C14.2842 15.9663 14.089 16.2152 13.8384 16.4121C13.5913 16.6055 13.3031 16.7648 12.9736 16.8901L12.356 17.2393H9.77246L9.76172 15.7837H11.6738C11.9137 15.7837 12.1125 15.7407 12.27 15.6548C12.4276 15.5688 12.5457 15.4471 12.6245 15.2896C12.7069 15.1284 12.748 14.9368 12.748 14.7148C12.748 14.4893 12.7069 14.2959 12.6245 14.1348C12.5422 13.9736 12.4204 13.8501 12.2593 13.7642C12.1017 13.6782 11.9066 13.6353 11.6738 13.6353H10.4814V20H8.59619V12.1797ZM12.877 20L11.1475 16.541L13.1455 16.5303L14.8965 19.9194V20H12.877ZM22.0338 18.5498V20H17.8658V18.5498H22.0338ZM18.5372 12.1797V20H16.652V12.1797H18.5372ZM21.4967 15.2842V16.686H17.8658V15.2842H21.4967ZM22.0499 12.1797V13.6353H17.8658V12.1797H22.0499ZM28.1345 17.3521H30.0144C29.9893 17.8963 29.8425 18.3761 29.574 18.7915C29.3054 19.2069 28.933 19.5309 28.4568 19.7637C27.9841 19.9928 27.4255 20.1074 26.781 20.1074C26.2582 20.1074 25.7909 20.0197 25.3791 19.8442C24.9709 19.6688 24.6236 19.4163 24.3371 19.0869C24.0543 18.7575 23.8376 18.3582 23.6872 17.8892C23.5404 17.4201 23.467 16.8919 23.467 16.3047V15.8804C23.467 15.2931 23.544 14.765 23.698 14.2959C23.8555 13.8232 24.0775 13.4222 24.364 13.0928C24.654 12.7598 25.0014 12.5055 25.406 12.3301C25.8106 12.1546 26.26 12.0669 26.7541 12.0669C27.4345 12.0669 28.0092 12.1886 28.4783 12.4321C28.9473 12.6756 29.3108 13.0104 29.5686 13.4365C29.8264 13.859 29.9786 14.3407 30.0251 14.8813H28.1453C28.1381 14.5877 28.088 14.3424 27.9949 14.1455C27.9018 13.945 27.755 13.7946 27.5544 13.6943C27.3539 13.5941 27.0871 13.5439 26.7541 13.5439C26.5214 13.5439 26.3191 13.5869 26.1472 13.6729C25.9753 13.7588 25.8321 13.8949 25.7175 14.0811C25.6029 14.2673 25.517 14.509 25.4597 14.8062C25.406 15.0998 25.3791 15.4543 25.3791 15.8696V16.3047C25.3791 16.7201 25.4042 17.0745 25.4543 17.3682C25.5045 17.6618 25.585 17.9017 25.696 18.0879C25.807 18.2741 25.9503 18.4119 26.1257 18.5015C26.3048 18.5874 26.5232 18.6304 26.781 18.6304C27.0675 18.6304 27.3092 18.5856 27.5061 18.4961C27.703 18.403 27.8552 18.2633 27.9626 18.0771C28.0701 17.8874 28.1274 17.6457 28.1345 17.3521ZM38.4032 15.9341V16.251C38.4032 16.849 38.319 17.3861 38.1507 17.8623C37.986 18.335 37.7515 18.7396 37.4471 19.0762C37.1428 19.4092 36.7829 19.6652 36.3675 19.8442C35.9522 20.0197 35.4938 20.1074 34.9925 20.1074C34.4877 20.1074 34.0257 20.0197 33.6068 19.8442C33.1914 19.6652 32.8298 19.4092 32.5218 19.0762C32.2175 18.7396 31.9811 18.335 31.8129 17.8623C31.6481 17.3861 31.5658 16.849 31.5658 16.251V15.9341C31.5658 15.3361 31.6481 14.799 31.8129 14.3228C31.9811 13.8465 32.2157 13.4419 32.5165 13.1089C32.8208 12.7723 33.1807 12.5163 33.5961 12.3408C34.015 12.1618 34.4769 12.0723 34.9818 12.0723C35.4831 12.0723 35.9414 12.1618 36.3568 12.3408C36.7757 12.5163 37.1374 12.7723 37.4418 13.1089C37.7461 13.4419 37.9824 13.8465 38.1507 14.3228C38.319 14.799 38.4032 15.3361 38.4032 15.9341ZM36.4911 16.251V15.9233C36.4911 15.5366 36.4571 15.1965 36.389 14.9028C36.3246 14.6056 36.2279 14.3568 36.099 14.1562C35.9701 13.9557 35.8107 13.8053 35.621 13.7051C35.4348 13.6012 35.2217 13.5493 34.9818 13.5493C34.7311 13.5493 34.5127 13.6012 34.3265 13.7051C34.1403 13.8053 33.9846 13.9557 33.8592 14.1562C33.7339 14.3568 33.639 14.6056 33.5746 14.9028C33.5137 15.1965 33.4833 15.5366 33.4833 15.9233V16.251C33.4833 16.6341 33.5137 16.9743 33.5746 17.2715C33.639 17.5651 33.7339 17.814 33.8592 18.0181C33.9881 18.2222 34.1457 18.3761 34.3319 18.48C34.5217 18.5838 34.7419 18.6357 34.9925 18.6357C35.2324 18.6357 35.4455 18.5838 35.6317 18.48C35.8179 18.3761 35.9737 18.2222 36.099 18.0181C36.2279 17.814 36.3246 17.5651 36.389 17.2715C36.4571 16.9743 36.4911 16.6341 36.4911 16.251ZM41.1953 12.1797H42.7314L44.477 17.6206L46.2226 12.1797H47.7588L45.1001 20H43.854L41.1953 12.1797ZM40.2607 12.1797H41.8506L42.146 18.1738V20H40.2607V12.1797ZM47.1035 12.1797H48.6987V20H46.8081V18.1738L47.1035 12.1797ZM51.7218 12.1797H53.2579L55.0035 17.6206L56.7491 12.1797H58.2853L55.6266 20H54.3805L51.7218 12.1797ZM50.7872 12.1797H52.3771L52.6725 18.1738V20H50.7872V12.1797ZM57.63 12.1797H59.2252V20H57.3346V18.1738L57.63 12.1797ZM66.6955 18.5498V20H62.5276V18.5498H66.6955ZM63.1989 12.1797V20H61.3137V12.1797H63.1989ZM66.1584 15.2842V16.686H62.5276V15.2842H66.1584ZM66.7116 12.1797V13.6353H62.5276V12.1797H66.7116ZM74.8802 12.1797V20H73.0003L70.2342 15.1338V20H68.349V12.1797H70.2342L73.0003 17.0459V12.1797H74.8802ZM79.4931 20H77.7583L77.769 18.5498H79.4931C79.8512 18.5498 80.1538 18.4639 80.4008 18.292C80.6515 18.1201 80.8413 17.8641 80.9702 17.5239C81.1027 17.1802 81.1689 16.7576 81.1689 16.2563V15.918C81.1689 15.542 81.1313 15.2126 81.0561 14.9297C80.9845 14.6432 80.8771 14.4051 80.7338 14.2153C80.5906 14.022 80.4116 13.877 80.1967 13.7803C79.9855 13.6836 79.742 13.6353 79.4663 13.6353H77.726V12.1797H79.4663C79.9962 12.1797 80.4814 12.271 80.9218 12.4536C81.3658 12.6326 81.749 12.8905 82.0713 13.2271C82.3971 13.5601 82.6477 13.9557 82.8232 14.4141C83.0022 14.8688 83.0918 15.3737 83.0918 15.9287V16.2563C83.0918 16.8078 83.0022 17.3127 82.8232 17.771C82.6477 18.2293 82.3989 18.625 82.0766 18.958C81.7544 19.291 81.373 19.5488 80.9326 19.7314C80.4957 19.9105 80.0159 20 79.4931 20ZM78.8379 12.1797V20H76.9526V12.1797H78.8379ZM90.3365 18.5498V20H86.1685V18.5498H90.3365ZM86.8399 12.1797V20H84.9547V12.1797H86.8399ZM89.7994 15.2842V16.686H86.1685V15.2842H89.7994ZM90.3526 12.1797V13.6353H86.1685V12.1797H90.3526ZM94.5305 20H92.7956L92.8064 18.5498H94.5305C94.8885 18.5498 95.1911 18.4639 95.4382 18.292C95.6888 18.1201 95.8786 17.8641 96.0075 17.5239C96.14 17.1802 96.2063 16.7576 96.2063 16.2563V15.918C96.2063 15.542 96.1687 15.2126 96.0935 14.9297C96.0218 14.6432 95.9144 14.4051 95.7712 14.2153C95.628 14.022 95.4489 13.877 95.2341 13.7803C95.0228 13.6836 94.7793 13.6353 94.5036 13.6353H92.7634V12.1797H94.5036C95.0336 12.1797 95.5188 12.271 95.9592 12.4536C96.4032 12.6326 96.7863 12.8905 97.1086 13.2271C97.4344 13.5601 97.6851 13.9557 97.8605 14.4141C98.0396 14.8688 98.1291 15.3737 98.1291 15.9287V16.2563C98.1291 16.8078 98.0396 17.3127 97.8605 17.771C97.6851 18.2293 97.4362 18.625 97.114 18.958C96.7917 19.291 96.4104 19.5488 95.9699 19.7314C95.5331 19.9105 95.0533 20 94.5305 20ZM93.8752 12.1797V20H91.9899V12.1797H93.8752Z" fill="white"/>
    <defs>
        <linearGradient id="paint0_linear_1755_12162" x1="110" y1="16" x2="0" y2="16" gradientUnits="userSpaceOnUse">
            <stop stop-color="#6E42CA"/>
            <stop offset="1" stop-color="#8D29C1"/>
        </linearGradient>
    </defs>
</svg>