<svg width="62" height="59" viewBox="0 0 62 59" fill="none" xmlns="http://www.w3.org/2000/svg">
<path d="M52.666 44.789L60.9997 53.1227" stroke="#F03F77" stroke-width="2" stroke-linecap="round" stroke-linejoin="round"/>
<path d="M60.9997 44.789L52.666 53.1227" stroke="#F03F77" stroke-width="2" stroke-linecap="round" stroke-linejoin="round"/>
<path d="M32.6687 33.9999V19.3477" stroke="#F03F77" stroke-width="2" stroke-linecap="round" stroke-linejoin="round"/>
<path d="M32.6654 41.6011C32.5228 41.6011 32.3861 41.6582 32.2859 41.7596C32.1856 41.8611 32.1302 41.9985 32.132 42.1411C32.1338 42.436 32.3705 42.6757 32.6654 42.6811C32.9636 42.6811 33.2054 42.4394 33.2054 42.1411C33.2054 41.8429 32.9636 41.6011 32.6654 41.6011" stroke="#F03F77" stroke-width="2" stroke-linecap="round" stroke-linejoin="round"/>
<path d="M59.4851 34.4074L43.7278 7.34627C41.429 3.41578 37.2174 1 32.664 1C28.1106 1 23.899 3.41578 21.6002 7.34627L2.59935 39.941C0.470361 43.6035 0.466655 48.1259 2.58964 51.7918C4.71262 55.4578 8.63688 57.7055 12.8731 57.682H42.7844" stroke="#F03F77" stroke-width="2" stroke-linecap="round" stroke-linejoin="round"/>
</svg>
