<svg width="40" height="40" viewBox="0 0 40 40" fill="none" xmlns="http://www.w3.org/2000/svg">
<circle cx="20" cy="20" r="18" fill="white"/>
<path d="M20.0001 2C10.0581 2 2 10.0599 2 20.0001C2 29.9401 10.0581 38 20.0001 38C29.9419 38 38 29.9401 38 20.0001C38 10.0599 29.9419 2 20.0001 2V2ZM30.208 19.1108C30.1222 19.6018 29.6527 20.0001 29.1616 20.0001H20.0001L18.9286 26.0816C18.843 26.5726 18.3733 26.9707 17.8823 26.9707H9.60997C9.11893 26.9707 8.7904 26.5726 8.87789 26.0816L9.79387 20.8892C9.87957 20.3982 10.3492 20.0001 10.8402 20.0001H20.0018L21.0731 13.9184C21.1588 13.4274 21.6284 13.0293 22.1194 13.0293H30.3919C30.8829 13.0293 31.2114 13.4274 31.1239 13.9184L30.208 19.1108Z" fill="url(#paint0_linear_2005_24030)"/>
<defs>
<linearGradient id="paint0_linear_2005_24030" x1="38" y1="13" x2="2" y2="32" gradientUnits="userSpaceOnUse">
<stop stop-color="#1FE7EA"/>
<stop offset="1" stop-color="#0326E4"/>
</linearGradient>
</defs>
</svg>
