<svg width="32" height="32" viewBox="0 0 32 32" fill="none" xmlns="http://www.w3.org/2000/svg">
<path opacity="0.2" d="M25 21C14 21 11.0002 15.5 11 6L7.5 8L7 13.5V23L9 25.5H23L25 23.5V21Z" fill="#E5E4FA"/>
<path fill-rule="evenodd" clip-rule="evenodd" d="M11.7777 7.5H22C23.3807 7.5 24.5 8.61929 24.5 10V20.2461C19.412 20.1647 16.317 18.832 14.4526 16.5838C12.7139 14.487 11.9287 11.4609 11.7777 7.5ZM10.2766 7.5C10.4271 11.6264 11.2442 15.0646 13.298 17.5413C15.5535 20.2611 19.1624 21.6645 24.5 21.7462V22C24.5 23.3807 23.3807 24.5 22 24.5H10C8.61929 24.5 7.5 23.3807 7.5 22V10C7.5 8.61929 8.61929 7.5 10 7.5H10.2766ZM11.7502 6H10C7.79086 6 6 7.79086 6 10V22C6 24.2091 7.79086 26 10 26H22C24.2091 26 26 24.2091 26 22V10C26 7.79086 24.2091 6 22 6H11.7502Z" fill="#E5E4FA"/>
</svg>
