<svg width="16" height="14" viewBox="0 0 16 14" fill="none" xmlns="http://www.w3.org/2000/svg">
<path fill-rule="evenodd" clip-rule="evenodd" d="M13 1.5H3C2.17157 1.5 1.5 2.17157 1.5 3V11C1.5 11.8284 2.17157 12.5 3 12.5H13C13.8284 12.5 14.5 11.8284 14.5 11V3C14.5 2.17157 13.8284 1.5 13 1.5ZM3 0C1.34315 0 0 1.34315 0 3V11C0 12.6569 1.34315 14 3 14H13C14.6569 14 16 12.6569 16 11V3C16 1.34315 14.6569 0 13 0H3ZM9.58393 3.37595C9.92858 3.14619 10.3942 3.23932 10.624 3.58396L12.9013 6.99999L10.624 10.416C10.3942 10.7607 9.92858 10.8538 9.58393 10.624C9.23929 10.3943 9.14616 9.92861 9.37592 9.58396L11.0986 6.99999L9.37592 4.41601C9.14616 4.07137 9.23929 3.60571 9.58393 3.37595ZM5.376 3.58396C5.60577 3.23932 6.07142 3.14619 6.41607 3.37595C6.76071 3.60571 6.85384 4.07137 6.62408 4.41601L4.90143 6.99999L6.62408 9.58396C6.85384 9.92861 6.76071 10.3943 6.41607 10.624C6.07142 10.8538 5.60577 10.7607 5.376 10.416L3.09865 6.99999L5.376 3.58396Z" fill="#8D8CA2"/>
</svg>
