<svg width="40" height="40" viewBox="0 0 40 40" fill="none" xmlns="http://www.w3.org/2000/svg">
<circle cx="20" cy="20" r="18" fill="white"/>
<path d="M10.7661 24.0626C10.68 24.0625 10.5948 24.0803 10.5161 24.115C10.4373 24.1497 10.3666 24.2004 10.3086 24.264C10.2506 24.3276 10.2065 24.4025 10.1791 24.4842C10.1517 24.5658 10.1417 24.6522 10.1496 24.7379C10.3869 27.1858 11.5272 29.4578 13.3482 31.1108C15.1693 32.7639 17.5406 33.6797 20.0001 33.6797C22.4595 33.6797 24.8308 32.7639 26.6519 31.1108C28.4729 29.4578 29.6132 27.1858 29.8505 24.7379C29.8584 24.6522 29.8484 24.5658 29.821 24.4842C29.7936 24.4025 29.7495 24.3276 29.6915 24.264C29.6334 24.2004 29.5628 24.1497 29.484 24.115C29.4053 24.0803 29.3201 24.0625 29.2341 24.0626H10.7661Z" fill="#ADD3F0"/>
<path d="M10.7658 6.52606C13.0465 6.52606 15.2338 7.43207 16.8465 9.04477C18.4592 10.6575 19.3652 12.8448 19.3652 15.1255V22.0956C19.3652 22.2593 19.3002 22.4164 19.1844 22.5321C19.0686 22.6479 18.9116 22.7129 18.7479 22.7129H10.7658C10.602 22.7129 10.445 22.6479 10.3293 22.5321C10.2135 22.4164 10.1484 22.2593 10.1484 22.0956V7.14339C10.1484 6.97966 10.2135 6.82267 10.3293 6.70689C10.445 6.59111 10.602 6.52606 10.7658 6.52606Z" fill="#1C2D66"/>
<path d="M21.3297 13.9487H21.7361C22.8021 13.9487 23.8575 14.1587 24.8424 14.5666C25.8271 14.9745 26.7219 15.5724 27.4757 16.3261C28.2294 17.0799 28.8273 17.9747 29.2352 18.9594C29.6431 19.9443 29.8531 20.9997 29.8531 22.0657V22.0956C29.8531 22.2593 29.788 22.4163 29.6723 22.5321C29.5565 22.6479 29.3995 22.7129 29.2358 22.7129H24.6744C23.6234 22.7129 22.6154 22.2954 21.8722 21.5522C21.129 20.809 20.7114 19.801 20.7114 18.7499V14.5624C20.7124 14.3992 20.778 14.2429 20.8938 14.1279C21.0097 14.0129 21.1664 13.9485 21.3297 13.9487Z" fill="#347EB8"/>
</svg>
