<svg width="40" height="41" viewBox="0 0 40 41" fill="none" xmlns="http://www.w3.org/2000/svg">
<path d="M30.0084 20.7979H10.0085C10.0085 15.3037 14.5053 10.7887 20.0176 10.7887C25.5298 10.7887 30.0266 15.2856 30.0266 20.7979H30.0084Z" fill="#F5F6F8"/>
<path d="M19.9999 0.797852C8.95738 0.797852 0 9.75523 0 20.7978C0 31.8404 8.95738 40.7978 19.9999 40.7978C31.0426 40.7978 40 31.8404 40 20.7978C40 9.75523 31.0607 0.797852 19.9999 0.797852ZM19.9999 35.8115C11.7498 35.8115 4.9864 29.0662 4.9864 20.7978C4.9864 12.5295 11.7498 5.80237 19.9999 5.80237C28.2502 5.80237 35.0135 12.5476 35.0135 20.8159C35.0135 29.0844 28.2683 35.8295 19.9999 35.8295V35.8115Z" fill="#F5F6F8"/>
</svg>
