<svg width="40" height="40" viewBox="0 0 40 40" fill="none" xmlns="http://www.w3.org/2000/svg">
<path d="M2 7.90625C2 4.64432 4.64432 2 7.90625 2H32.0938C35.3557 2 38 4.64432 38 7.90625V32.0938C38 35.3557 35.3557 38 32.0938 38H7.90625C4.64432 38 2 35.3557 2 32.0938V7.90625Z" fill="white"/>
<path fill-rule="evenodd" clip-rule="evenodd" d="M12.6875 10.1562V31.8125H16.9062V24.6406H22.25C24.2188 24.3594 28.1281 22.475 28.0156 17.1875C27.9031 11.9 24.125 10.2969 22.25 10.1562H12.6875ZM17.0469 13.8125V20.9844H20.8438C21.7813 20.8438 23.6562 19.9437 23.6562 17.4688C23.6562 14.9938 21.7813 14 20.8438 13.8125H17.0469Z" fill="#D9D9D9"/>
<path fill-rule="evenodd" clip-rule="evenodd" d="M12.6875 10.1562V31.8125H16.9062V24.6406H22.25C24.2188 24.3594 28.1281 22.475 28.0156 17.1875C27.9031 11.9 24.125 10.2969 22.25 10.1562H12.6875ZM17.0469 13.8125V20.9844H20.8438C21.7813 20.8438 23.6562 19.9437 23.6562 17.4688C23.6562 14.9938 21.7813 14 20.8438 13.8125H17.0469Z" fill="#3E444E"/>
</svg>
