<svg width="98" height="98" viewBox="0 0 98 98" fill="none" xmlns="http://www.w3.org/2000/svg">
<path d="M49 0.25C39.3582 0.25 29.9329 3.10914 21.916 8.46586C13.8991 13.8226 7.65067 21.4363 3.96089 30.3442C0.271123 39.2521 -0.69429 49.0541 1.18674 58.5107C3.06777 67.9672 7.71076 76.6536 14.5286 83.4715C21.3464 90.2893 30.0328 94.9323 39.4894 96.8133C48.9459 98.6943 58.7479 97.7289 67.6558 94.0391C76.5637 90.3493 84.1774 84.1009 89.5342 76.084C94.8909 68.0671 97.75 58.6418 97.75 49C97.7351 36.0753 92.5941 23.6842 83.455 14.545C74.3158 5.40588 61.9247 0.264938 49 0.25ZM72.2178 40.4636L44.7154 66.7136C44.0161 67.379 43.0878 67.75 42.1226 67.75C41.1574 67.75 40.2291 67.379 39.5298 66.7136L25.7822 53.5886C25.064 52.9006 24.6482 51.9557 24.6262 50.9614C24.6042 49.967 24.9778 49.0046 25.6648 48.2855C26.3519 47.5664 27.2963 47.1494 28.2906 47.1262C29.2849 47.1029 30.2478 47.4752 30.9678 48.1614L42.1226 58.8145L67.0322 35.0364C67.7522 34.3502 68.7151 33.9779 69.7094 34.0012C70.7037 34.0244 71.6481 34.4414 72.3352 35.1605C73.0223 35.8796 73.3958 36.842 73.3738 37.8364C73.3518 38.8307 72.936 39.7756 72.2178 40.4636Z" fill="#946BEC"/>
</svg>
