<svg width="40" height="40" viewBox="0 0 40 40" fill="none" xmlns="http://www.w3.org/2000/svg">
<circle cx="20" cy="20" r="18" fill="#236DFD"/>
<path fill-rule="evenodd" clip-rule="evenodd" d="M17.6084 12.4838C18.1907 12.8507 18.5818 13.4322 22.1564 19.2468C25.8958 25.3294 26.0674 25.6384 26.0674 26.292C26.0674 26.8847 26.0051 27.0383 25.5989 27.4467C25.1904 27.8574 25.0416 27.9178 24.4382 27.9178C23.8977 27.9178 23.6547 27.8405 23.3296 27.5655C23.1006 27.3718 22.0317 25.7663 20.9544 23.9978C17.742 18.7248 16.121 16.1196 16.0813 16.1663C15.7183 16.5942 14.7679 18.4344 14.7679 18.7091C14.7679 18.9374 15.4546 20.2351 16.5553 22.0868C17.5384 23.7405 18.4393 25.3261 18.5574 25.6102C19.0173 26.7173 18.2209 27.9178 17.0261 27.9178C16.6883 27.9178 16.2579 27.8163 16.0698 27.6925C15.8818 27.5685 15.0431 26.3215 14.2063 24.9215C13.3694 23.5213 12.6331 22.3758 12.5701 22.3758C12.5069 22.3758 11.8046 23.4825 11.0093 24.8351C10.2141 26.1876 9.4347 27.4108 9.27747 27.5531C9.12024 27.6955 8.72021 27.8427 8.38867 27.8803C7.31163 28.0024 6.5 27.2979 6.5 26.2408C6.5 25.726 6.50579 25.7152 10.599 18.635C12.295 15.7012 13.8849 13.0947 14.1321 12.8427C15.0546 11.9021 16.4555 11.7575 17.6084 12.4838ZM25.2409 12.4851C25.6453 12.9021 33.1453 25.0357 33.3765 25.6469C33.7101 26.5294 33.3564 27.3503 32.4529 27.79C31.9641 28.0279 31.7892 28.0492 31.3349 27.9262C31.0386 27.846 30.6964 27.6695 30.5744 27.5339C30.4523 27.3982 28.5518 24.3586 26.3509 20.779C22.0546 13.7913 22.0533 13.7887 22.5553 12.8126C23.0288 11.8917 24.4924 11.7133 25.2409 12.4851Z" fill="white"/>
</svg>
