<svg width="32" height="32" viewBox="0 0 32 32" fill="none" xmlns="http://www.w3.org/2000/svg">
<path d="M13.3552 9.65502C14.0321 8.15075 16.1365 8.06654 16.9315 9.51191L24.3698 23.0362C25.1029 24.3691 24.1386 26 22.6174 26H9.09311C7.64179 26 6.6737 24.5028 7.26926 23.1793L13.3552 9.65502Z" fill="#E5E4FA" fill-opacity="0.2"/>
<path fill-rule="evenodd" clip-rule="evenodd" d="M23.0555 23.7591L15.6171 10.2348C15.4184 9.87345 14.8923 9.8945 14.7231 10.2706L8.63715 23.7949C8.48825 24.1257 8.73028 24.5 9.09311 24.5H22.6174C22.9977 24.5 23.2388 24.0923 23.0555 23.7591ZM16.9315 9.51191C16.1365 8.06654 14.0321 8.15075 13.3552 9.65502L7.26926 23.1793C6.6737 24.5028 7.64179 26 9.09311 26H22.6174C24.1386 26 25.1029 24.3691 24.3698 23.0362L16.9315 9.51191Z" fill="#E5E4FA"/>
</svg>
